<?xml version="1.0" encoding="UTF-8"?>
<svg id="Lager_1" data-name="Lager 1" xmlns="http://www.w3.org/2000/svg" viewBox="0 0 277 99.69">
  <defs>
    <style>
      .cls-1 {
        fill: #242424;
      }

      .cls-2 {
        fill: #e7371e;
      }
    </style>
  </defs>
  <path class="cls-1" d="m257.41,98.06c-.96-.93-1.44-2.06-1.44-3.38s.48-2.44,1.44-3.37c.96-.93,2.12-1.4,3.48-1.4s2.53.47,3.49,1.4c.97.94,1.45,2.06,1.45,3.37s-.48,2.45-1.45,3.38c-.97.94-2.13,1.4-3.49,1.4s-2.52-.47-3.48-1.4Zm.77-6.07c-.73.73-1.1,1.63-1.1,2.69s.37,1.97,1.1,2.7c.73.73,1.64,1.1,2.71,1.1s1.97-.37,2.71-1.1c.74-.73,1.11-1.63,1.11-2.7s-.37-1.97-1.11-2.69c-.74-.73-1.64-1.09-2.71-1.09s-1.98.36-2.71,1.09Zm3.56,5.25l-1.02-1.86h-.39v1.86h-1.16v-5.18h2c.52,0,.96.16,1.31.48.35.32.53.71.53,1.18,0,.35-.1.67-.3.94-.2.27-.47.47-.8.59l1.14,2h-1.32Zm-1.41-2.81h.66c.27,0,.48-.06.62-.19.15-.12.22-.3.22-.52s-.07-.4-.22-.53c-.15-.13-.36-.19-.62-.19h-.66v1.43Z"/>
  <path class="cls-2" d="m86.27,25.97c-7.23,6.49-17.82,7.3-22.58,2-4.76-5.31-4.17-16.44,3.06-22.93,7.23-6.49,17.58-6.74,23.13-.56,5.54,6.18,3.63,15.01-3.6,21.49Z"/>
  <path class="cls-1" d="m274.77,64.5c-.96,1.66-4.65,6.75-12.94,14.9-2.41,2.37-8.17,7.08-11.38,9.23-3.22,2.15-6.61,4.09-10.18,5.8-8.1,3.94-13.33,5.26-20.12,5.26-9.91,0-15.95-2.56-18.13-7.67-.68-1.54-1.02-3.26-1.02-5.16s.36-3.95,1.08-6.15c.72-2.2,1.67-4.38,2.85-6.55,2.35-4.3,5.14-8.1,8.35-11.41,2.72-2.85,6.28-6.25,6.37-7.01.1-.85-.49-1.4-1.46-1.63-1.21-.28-2.5-.74-4.19-.39s-3.67,2.56-6.7,5.73c0,0-14.15,15.47-18.74,19.69-7.92,7.27-16.08,11.81-23.59,14.63-6.43,2.4-11.04,2.29-13.85-.34-2.31-2.21-4.14-5.79-5.5-10.73l-1.63-5.9-14.46,8.89-8.35,4.75c-9.96,5.43-17.42,8.15-22.4,8.15-6.38,0-11.7-2.47-15.95-7.4-1.96-2.24-3.44-4.65-4.45-7.23-1.55,1.16-3.13,2.29-4.75,3.4-3.46,2.38-6.91,4.46-10.35,6.25-3.44,1.79-6.79,3.21-10.05,4.28-3.26,1.06-6.46,1.6-9.6,1.6s-6.41-.76-9.78-2.27c-3.37-1.52-6.37-3.54-8.99-6.08-.65-.63-1.27-1.28-1.85-1.93-.23-.26-.61-.29-.89-.07-2.4,1.9-4.98,3.58-7.77,4.87-4.72,2.19-13.02,4.13-14.25-3.25-.55-3.31,1.25-5.16,3.52-7.12,2.77-2.39,5.62-4.72,8.21-7.3,1.47-1.47,2.84-3.02,4.15-4.63l.14-.39c.18-6.08,2.07-12.23,5.69-18.47,3.48-5.93,7.92-10.9,13.31-14.93,5.39-4.03,10.39-6.04,15-6.04,6.61,0,9.86,1.68,10.86,5.41.91,3.35-.29,7.06-1.12,9.23-.73,1.91-1.61,3.85-2.72,5.77-1.11,1.93-2.33,3.8-3.67,5.64-1.34,1.83-2.61,3.49-3.84,4.99-2.61,3.17-4.49,5.11-5.42,5.99-.14.13-.21.3-.2.48.09,1.46.83,2.99,2.99,4.52,2.17,1.54,4.48,2.25,5.99,2.25s3.31-.36,5.36-1.09c2.06-.72,4.18-1.7,6.38-2.92,2.2-1.22,4.44-2.62,6.72-4.21,2.28-1.59,4.54-3.21,6.75-4.89l7.28-5.69c7.87-6.77,18.65-15,32.54-20.26.88-.33,8.09-2.62,10.66-3.3,7.11-1.89,18.17-3.03,25.98,2.4,2.45,1.7,6.88,6.54,5.11,9.85-.21.39-.39.73-.7,1.04-.57.59-.98.9-2.16,1.32-3.54,1.25-3.94-4.88-15.06-2.98-3.34.57-10.66,3.71-13.54,5.15-7.45,3.72-13,7.04-18.26,13.41-.66.8-1.41,2.54-1.58,3.56-.05.32-.08.63-.08.93,0,1.79,1.69,3.35,4.57,3.35.71,0,1.51-.14,2.48-.43,7.35-2.87,12.62-6.54,19.33-10.27.96-.53,10.82-6.11,13.41-7.3,4.05-1.87,10.4-3.78,14.72-.97.68.51,1.33,1.13,1.95,1.87.46.6.87,1.24,1.23,1.92.36.68.68,1.39.95,2.12.41,1.18.79,2.37,1.15,3.57.36,1.2.72,2.27,1.08,3.22.82,2.22,2.57,3.41,3.22,3.41,1.15,0,1.6-.33,2.82-.99,1.22-.65,5.5-3.61,6.84-4.8,4.72-4.17,10.62-10.13,17.92-18.57,4.81-5.56,10.65-13.35,15-13.35,3.85,0,6.45,1.09,7.8,3.26l.95,1.49c.72,1.13,1.75,1.68,2.47,1.68s2.15-.15,3.8-.5c0,0,5.79-1.62,9.63-1.62.86,0,4.48-.07,6.29.8,2.9,1.39,4.54,3.36,5.32,5.65.22.63.44,1.25.53,1.91.58,4.28-1.08,6.45-2.61,9-.4.56-.83,1.1-1.28,1.61-2.25,2.58-6.06,6.21-6.59,6.73-.53.52-2.63,2.56-3,2.89-.49.43-1.72,1.55-2.21,1.98-2.66,2.53-3.31,3.25-3.83,3.8-2.49,2.63-3.13,6.25-.32,7.05,2.01.4,4.21.02,6.58-1.23,3.88-2.05,7.94-4.64,9.75-5.96,5.62-4.09,17.3-12.52,20.15-13.82.57-.26,2.51-1.48,4.92-1.54,1.99-.05,3.63,1.91,3.51,3.9-.1,1.57-.8,3.74-2.21,6.18Z"/>
</svg>