<?xml version="1.0" encoding="UTF-8" standalone="no"?>
<!-- Created with Inkscape (http://www.inkscape.org/) -->

<svg
   width="66.121223mm"
   height="38.438145mm"
   viewBox="0 0 66.121223 38.438145"
   version="1.1"
   id="svg1"
   xmlns:inkscape="http://www.inkscape.org/namespaces/inkscape"
   xmlns:sodipodi="http://sodipodi.sourceforge.net/DTD/sodipodi-0.dtd"
   xmlns:xlink="http://www.w3.org/1999/xlink"
   xmlns="http://www.w3.org/2000/svg"
   xmlns:svg="http://www.w3.org/2000/svg">
  <sodipodi:namedview
     id="namedview1"
     pagecolor="#505050"
     bordercolor="#eeeeee"
     borderopacity="1"
     inkscape:showpageshadow="0"
     inkscape:pageopacity="0"
     inkscape:pagecheckerboard="0"
     inkscape:deskcolor="#505050"
     inkscape:document-units="mm" />
  <defs
     id="defs1">
    <linearGradient
       id="linear-gradient"
       x1="173.22662"
       y1="83.041153"
       x2="269.62073"
       y2="83.041153"
       gradientUnits="userSpaceOnUse">
      <stop
         offset="0"
         stop-color="#7929d2"
         id="stop1" />
      <stop
         offset="1"
         stop-color="#0070c5"
         id="stop2" />
    </linearGradient>
    <linearGradient
       inkscape:collect="always"
       xlink:href="#linear-gradient-2"
       id="linearGradient20"
       gradientUnits="userSpaceOnUse"
       x1="179.78728"
       y1="-1.87884"
       x2="178.9799"
       y2="93.40757" />
    <linearGradient
       id="linear-gradient-2"
       x1="179.78728"
       y1="-1.87884"
       x2="178.9799"
       y2="93.40757"
       gradientUnits="userSpaceOnUse">
      <stop
         offset="0"
         stop-color="#00aeff"
         id="stop3" />
      <stop
         offset="1"
         stop-color="#9454db"
         id="stop4" />
    </linearGradient>
    <linearGradient
       id="linear-gradient-3"
       x1="232.84549"
       y1="37.632019"
       x2="212.26581"
       y2="1.98698"
       gradientUnits="userSpaceOnUse">
      <stop
         offset="0"
         stop-color="#66a9dc"
         id="stop5" />
      <stop
         offset="1"
         stop-color="#b1e4fa"
         id="stop6" />
    </linearGradient>
    <linearGradient
       id="linear-gradient-4"
       x1="237.4232"
       y1="9.7026796"
       x2="249.11588"
       y2="90.576942"
       xlink:href="#linear-gradient-2" />
  </defs>
  <g
     inkscape:label="Layer 1"
     inkscape:groupmode="layer"
     id="layer1"
     transform="translate(-106.62709,-119.0625)">
    <polygon
       class="cls-1"
       points="105.31,135.046 132.385,148.72 137.154,121.601 "
       id="polygon6"
       style="fill:#7929d2"
       transform="matrix(0.26458333,0,0,0.26458333,104.3096,116.91144)" />
    <polygon
       class="cls-2"
       points="34.434,126.703 42.309,153.408 68.401,139.419 "
       id="polygon7"
       style="fill:#9454db"
       transform="matrix(0.26458333,0,0,0.26458333,104.3096,116.91144)" />
    <polygon
       class="cls-3"
       points="105.31,135.046 68.401,139.419 84.508,115.518 "
       id="polygon8"
       style="fill:#af7fe4"
       transform="matrix(0.26458333,0,0,0.26458333,104.3096,116.91144)" />
    <polygon
       class="cls-3"
       points="34.434,126.703 8.759,101.076 38.535,97.167 "
       id="polygon9"
       style="fill:#af7fe4"
       transform="matrix(0.26458333,0,0,0.26458333,104.3096,116.91144)" />
    <polygon
       class="cls-4"
       points="220.982,44.482 258.666,94.416 137.154,121.601 "
       id="polygon10"
       style="fill:url(#linear-gradient)"
       transform="matrix(0.26458333,0,0,0.26458333,104.3096,116.91144)" />
    <polygon
       class="cls-5"
       points="172.959,8.13 220.982,44.482 137.154,121.601 "
       id="polygon11"
       style="fill:url(#linearGradient20)"
       transform="matrix(0.26458333,0,0,0.26458333,104.3096,116.91144)" />
    <polygon
       class="cls-6"
       points="258.666,8.13 220.982,44.482 172.959,8.13 "
       id="polygon12"
       style="fill:url(#linear-gradient-3)"
       transform="matrix(0.26458333,0,0,0.26458333,104.3096,116.91144)" />
    <polygon
       class="cls-7"
       points="258.666,8.13 220.982,44.482 258.666,94.416 "
       id="polygon13"
       style="fill:url(#linear-gradient-4)"
       transform="matrix(0.26458333,0,0,0.26458333,104.3096,116.91144)" />
  </g>
</svg>
