<?xml version="1.0" encoding="UTF-8" standalone="no"?>
<svg
   width="16"
   height="16"
   viewBox="0 0 16 16"
   fill="currentColor"
   version="1.1"
   id="svg1"
   sodipodi:docname="application_icon_dark.svg"
   xml:space="preserve"
   inkscape:version="1.3.2 (091e20e, 2023-11-25, custom)"
   xmlns:inkscape="http://www.inkscape.org/namespaces/inkscape"
   xmlns:sodipodi="http://sodipodi.sourceforge.net/DTD/sodipodi-0.dtd"
   xmlns:xlink="http://www.w3.org/1999/xlink"
   xmlns="http://www.w3.org/2000/svg"
   xmlns:svg="http://www.w3.org/2000/svg"><defs
     id="defs1"><linearGradient
       id="linear-gradient"
       x1="173.22662"
       y1="83.041153"
       x2="269.62073"
       y2="83.041153"
       gradientUnits="userSpaceOnUse"><stop
         offset="0"
         stop-color="#7929d2"
         id="stop1" /><stop
         offset="1"
         stop-color="#0070c5"
         id="stop2" /></linearGradient><linearGradient
       id="linear-gradient-2"
       x1="179.78728"
       y1="-1.87884"
       x2="178.9799"
       y2="93.40757"
       gradientUnits="userSpaceOnUse"><stop
         offset="0"
         stop-color="#00aeff"
         id="stop3" /><stop
         offset="1"
         stop-color="#9454db"
         id="stop4" /></linearGradient><linearGradient
       id="linear-gradient-3"
       x1="232.84549"
       y1="37.632019"
       x2="212.26581"
       y2="1.98698"
       gradientUnits="userSpaceOnUse"><stop
         offset="0"
         stop-color="#66a9dc"
         id="stop5" /><stop
         offset="1"
         stop-color="#b1e4fa"
         id="stop6" /></linearGradient><linearGradient
       id="linear-gradient-4"
       x1="237.4232"
       y1="9.7026796"
       x2="249.11588"
       y2="90.576942"
       xlink:href="#linear-gradient-2" /><pattern
       id="EMFhbasepattern"
       patternUnits="userSpaceOnUse"
       width="6"
       height="6"
       x="0"
       y="0" /></defs><sodipodi:namedview
     id="namedview1"
     pagecolor="#ffffff"
     bordercolor="#000000"
     borderopacity="0.25"
     inkscape:showpageshadow="2"
     inkscape:pageopacity="0.0"
     inkscape:pagecheckerboard="0"
     inkscape:deskcolor="#d1d1d1"
     inkscape:zoom="26.892155"
     inkscape:cx="10.988335"
     inkscape:cy="7.5672627"
     inkscape:window-width="2560"
     inkscape:window-height="1494"
     inkscape:window-x="-11"
     inkscape:window-y="-11"
     inkscape:window-maximized="1"
     inkscape:current-layer="svg1" /><path
     d="M2 4.5V6H5.58579C5.71839 6 5.84557 5.94732 5.93934 5.85355L7.29289 4.5L5.93934 3.14645C5.84557 3.05268 5.71839 3 5.58579 3H3.5C2.67157 3 2 3.67157 2 4.5ZM1 4.5C1 3.11929 2.11929 2 3.5 2H5.58579C5.98361 2 6.36514 2.15804 6.64645 2.43934L8.20711 4H12.5C13.8807 4 15 5.11929 15 6.5V11.5C15 12.8807 13.8807 14 12.5 14H3.5C2.11929 14 1 12.8807 1 11.5V4.5ZM2 7V11.5C2 12.3284 2.67157 13 3.5 13H12.5C13.3284 13 14 12.3284 14 11.5V6.5C14 5.67157 13.3284 5 12.5 5H8.20711L6.64645 6.56066C6.36514 6.84197 5.98361 7 5.58579 7H2Z"
     id="path1"
     style="fill:#c3c3c3;fill-opacity:1" /></svg>
