<?xml version="1.0" encoding="UTF-8" standalone="no"?>
<svg
   width="164.81676mm"
   height="161.34853mm"
   viewBox="0 0 164.81676 161.34853"
   version="1.1"
   xmlns="http://www.w3.org/2000/svg">
  <g transform="translate(-43.388637,-87.331497)">
    <path
       style="fill:#c5c5c5"
       d="m 63.901793,248.3709 c -9.494167,-1.76337 -17.06336,-8.77923 -19.791915,-18.34506 l -0.581001,-2.03689 -0.07012,-59.33995 -0.07012,-59.33996 0.499052,-2.4429 c 1.970546,-9.64599 10.28362,-17.683746 19.881812,-19.223358 2.960484,-0.474881 121.686769,-0.378663 124.132449,0.100599 9.67364,1.895672 17.00577,8.808381 19.60365,18.482249 l 0.58319,2.17166 0.0849,57.81146 c 0.0858,58.38723 0.057,60.52526 -0.86549,64.16145 -2.16377,8.52937 -8.64141,15.0698 -17.47269,17.64204 l -2.10877,0.61421 -60.98645,0.0442 c -49.065648,0.0356 -61.348476,-0.023 -62.838539,-0.29977 z m 24.538004,-26.93038 0.08964,-16.7349 0.596031,-1.95608 c 2.138867,-7.01942 7.028231,-11.89885 13.797042,-13.769 l 1.97906,-0.54679 h 16.56769 16.56768 l 1.00505,-2.05052 c 6.81104,-13.89607 28.8512,-11.38511 32.78964,3.73562 5.14957,19.7705 -23.21092,30.27564 -32.74165,12.12799 l -1.0118,-1.9266 -15.65695,0.076 -15.65694,0.076 -1.38299,0.62528 c -1.61742,0.73128 -3.32265,2.47463 -4.13069,4.22303 l -0.57174,1.23711 v 15.7427 15.74271 h 41.275 41.275 l 1.98438,-0.62298 c 5.32046,-1.67031 9.40214,-5.64187 11.18825,-10.88639 l 0.5857,-1.7198 0.0727,-34.72656 0.0728,-34.72656 h -19.40076 -19.40075 l -0.54877,1.12448 c -7.92112,16.23117 -33.23985,10.53776 -33.23918,-7.47449 6.6e-4,-17.67162 24.03124,-23.58866 32.98978,-8.12307 l 1.02706,1.77307 h 19.29129 19.29129 l -0.0777,-15.94114 -0.0777,-15.94115 -0.65146,-1.85208 c -1.36624,-3.88417 -4.50466,-7.41166 -8.14706,-9.157041 -3.37253,-1.616064 -1.36763,-1.548966 -46.43324,-1.55399 l -41.20886,-0.0046 0.002,17.264061 0.002,17.26406 2.04804,0.98622 c 16.49397,7.94257 10.67434,32.2373 -7.741546,32.31798 -18.300162,0.0802 -24.6668,-24.26511 -8.442605,-32.28354 l 1.960314,-0.96884 v -17.2899 -17.289975 h -9.766308 c -7.559652,0 -10.234873,0.08928 -11.840103,0.395116 -6.265037,1.193662 -11.082738,6.219889 -11.992705,12.511789 -0.338845,2.34292 -0.35504,109.46092 -0.01699,112.40043 0.767436,6.67328 5.3827,12.20074 11.655695,13.95942 2.171464,0.60879 2.296995,0.61541 12.488764,0.65818 l 9.446057,0.0396 z m 69.143243,-21.46585 c 5.98653,-2.78761 3.86966,-11.60124 -2.79688,-11.64486 -5.01201,-0.0328 -7.91392,5.24731 -5.25305,9.55806 1.51951,2.46168 5.19735,3.41509 8.04993,2.0868 z m -60.2957,-45.43085 c 4.50434,-2.18051 4.66093,-8.61077 0.264585,-10.86501 -5.492765,-2.81644 -11.218581,3.23332 -8.051696,8.50723 1.590894,2.64937 5.032311,3.69136 7.787111,2.35778 z m 46.7525,0.22902 c 2.5025,-0.74316 4.40404,-3.77097 4.03933,-6.43181 -0.72552,-5.29324 -7.57115,-7.26717 -10.95708,-3.15945 -3.92641,4.76342 0.8544,11.39188 6.91775,9.59126 z" />
  </g>
</svg>
