<svg xmlns="http://www.w3.org/2000/svg" width="108" height="108" viewBox="0 0 108 108">
  <path fill="#ffffff" fill-rule="evenodd" d="M76.50 2.00 L77.50 2.00 L78.50 2.00 L79.00 2.50 L79.50 3.00 L80.50 3.00 L81.50 3.00 L82.50 3.00 L83.50 3.00 L84.00 3.50 L84.50 4.00 L85.00 4.50 L85.00 5.50 L85.00 6.50 L85.00 7.50 L84.50 8.00 L84.00 8.50 L83.50 9.00 L83.00 9.50 L82.50 10.00 L82.00 10.50 L81.50 11.00 L81.00 11.50 L80.50 12.00 L80.00 12.50 L79.50 13.00 L79.00 13.50 L78.50 14.00 L78.00 14.50 L77.50 15.00 L77.00 15.50 L76.50 16.00 L76.00 16.50 L75.50 17.00 L75.00 17.50 L74.50 18.00 L74.00 18.50 L73.50 19.00 L73.00 19.50 L72.50 20.00 L71.50 20.00 L71.00 20.50 L71.00 21.50 L70.50 22.00 L70.00 22.50 L70.00 23.50 L70.00 24.50 L70.00 25.50 L70.00 26.50 L70.00 27.50 L70.50 28.00 L71.00 28.50 L71.00 29.50 L71.00 30.50 L71.00 31.50 L71.00 32.50 L71.00 33.50 L71.50 34.00 L72.00 34.50 L72.00 35.50 L72.50 36.00 L73.50 36.00 L74.50 36.00 L75.00 36.50 L75.50 37.00 L76.50 37.00 L77.50 37.00 L78.50 37.00 L79.50 37.00 L80.50 37.00 L81.00 37.50 L81.50 38.00 L82.50 38.00 L83.50 38.00 L84.50 38.00 L85.50 38.00 L86.50 38.00 L87.00 37.50 L87.00 36.50 L87.50 36.00 L88.00 35.50 L88.50 35.00 L89.00 34.50 L89.50 34.00 L90.00 33.50 L90.50 33.00 L91.50 33.00 L92.00 32.50 L92.00 31.50 L92.50 31.00 L93.00 30.50 L93.50 30.00 L94.00 29.50 L94.50 29.00 L95.00 28.50 L95.50 28.00 L96.50 28.00 L97.00 27.50 L97.00 26.50 L97.50 26.00 L98.00 25.50 L98.50 25.00 L99.00 24.50 L99.50 24.00 L100.00 23.50 L100.50 23.00 L101.50 23.00 L102.50 23.00 L103.50 23.00 L104.00 23.50 L104.50 24.00 L105.00 24.50 L105.00 25.50 L105.00 26.50 L105.00 27.50 L105.50 28.00 L106.00 28.50 L106.00 29.50 L106.00 30.50 L106.00 31.50 L106.00 32.50 L106.00 33.50 L106.00 34.50 L105.50 35.00 L105.00 35.50 L105.00 36.50 L105.00 37.50 L105.00 38.50 L105.00 39.50 L104.50 40.00 L104.00 40.50 L104.00 41.50 L104.00 42.50 L103.50 43.00 L103.00 43.50 L103.00 44.50 L102.50 45.00 L102.00 45.50 L102.00 46.50 L101.50 47.00 L101.00 47.50 L100.50 48.00 L100.00 48.50 L100.00 49.50 L99.50 50.00 L99.00 50.50 L98.50 51.00 L98.00 51.50 L97.50 52.00 L97.00 52.50 L96.50 53.00 L96.00 53.50 L95.50 54.00 L94.50 54.00 L94.00 54.50 L93.50 55.00 L93.00 55.50 L92.50 56.00 L91.50 56.00 L91.00 56.50 L90.50 57.00 L90.00 57.50 L89.50 58.00 L88.50 58.00 L88.00 57.50 L87.50 57.00 L87.00 56.50 L86.50 56.00 L86.00 55.50 L85.50 55.00 L85.00 54.50 L84.50 54.00 L84.00 53.50 L83.50 53.00 L82.50 53.00 L82.00 52.50 L81.50 52.00 L81.00 51.50 L80.50 51.00 L79.50 51.00 L79.00 50.50 L78.50 50.00 L77.50 50.00 L77.00 49.50 L76.50 49.00 L75.50 49.00 L74.50 49.00 L74.00 48.50 L73.50 48.00 L72.50 48.00 L71.50 48.00 L70.50 48.00 L69.50 48.00 L68.50 48.00 L67.50 48.00 L66.50 48.00 L65.50 48.00 L64.50 48.00 L63.50 48.00 L63.00 47.50 L62.50 47.00 L62.00 46.50 L61.50 46.00 L61.00 45.50 L60.50 45.00 L60.00 44.50 L59.50 44.00 L59.00 43.50 L58.50 43.00 L58.00 42.50 L57.50 42.00 L57.00 41.50 L56.50 41.00 L56.00 40.50 L55.50 40.00 L55.00 39.50 L54.50 39.00 L54.00 38.50 L53.50 38.00 L53.00 37.50 L52.50 37.00 L52.00 36.50 L51.50 36.00 L51.00 35.50 L50.50 35.00 L50.00 34.50 L49.50 34.00 L49.00 33.50 L48.50 33.00 L48.00 32.50 L48.00 31.50 L48.00 30.50 L48.00 29.50 L48.00 28.50 L48.00 27.50 L48.00 26.50 L48.00 25.50 L48.00 24.50 L48.50 24.00 L49.00 23.50 L49.00 22.50 L49.00 21.50 L49.50 21.00 L50.00 20.50 L50.00 19.50 L50.00 18.50 L50.50 18.00 L51.00 17.50 L51.50 17.00 L52.00 16.50 L52.00 15.50 L52.50 15.00 L53.00 14.50 L53.50 14.00 L54.00 13.50 L54.00 12.50 L54.50 12.00 L55.00 11.50 L55.50 11.00 L56.00 10.50 L56.50 10.00 L57.50 10.00 L58.00 9.50 L58.50 9.00 L59.00 8.50 L59.50 8.00 L60.00 7.50 L60.50 7.00 L61.50 7.00 L62.00 6.50 L62.50 6.00 L63.50 6.00 L64.00 5.50 L64.50 5.00 L65.50 5.00 L66.00 4.50 L66.50 4.00 L67.50 4.00 L68.00 3.50 L68.50 3.00 L69.50 3.00 L70.50 3.00 L71.50 3.00 L72.50 3.00 L73.50 3.00 L74.50 3.00 L75.50 3.00 L76.00 2.50 L76.50 2.00 Z M14.50 3.00 L15.50 3.00 L16.00 3.50 L16.50 4.00 L17.50 4.00 L18.00 4.50 L18.50 5.00 L19.50 5.00 L20.00 5.50 L20.50 6.00 L21.00 6.50 L21.50 7.00 L22.00 7.50 L22.50 8.00 L23.00 8.50 L23.50 9.00 L24.50 9.00 L25.00 9.50 L25.50 10.00 L26.00 10.50 L26.50 11.00 L27.00 11.50 L27.50 12.00 L28.50 12.00 L29.00 12.50 L29.50 13.00 L30.00 13.50 L30.50 14.00 L31.00 14.50 L31.50 15.00 L32.50 15.00 L33.00 15.50 L33.50 16.00 L34.00 16.50 L34.50 17.00 L35.50 17.00 L36.00 17.50 L36.50 18.00 L37.00 18.50 L37.50 19.00 L38.00 19.50 L38.50 20.00 L39.50 20.00 L40.00 20.50 L40.50 21.00 L41.00 21.50 L41.00 22.50 L41.00 23.50 L41.00 24.50 L41.00 25.50 L41.00 26.50 L41.00 27.50 L41.00 28.50 L41.00 29.50 L41.00 30.50 L41.00 31.50 L41.00 32.50 L41.00 33.50 L41.00 34.50 L41.50 35.00 L42.00 35.50 L42.50 36.00 L43.00 36.50 L43.50 37.00 L44.50 37.00 L45.00 37.50 L45.50 38.00 L46.00 38.50 L46.00 39.50 L46.50 40.00 L47.00 40.50 L47.50 41.00 L48.00 41.50 L48.50 42.00 L49.00 42.50 L49.50 43.00 L50.00 43.50 L50.50 44.00 L51.00 44.50 L51.50 45.00 L52.00 45.50 L52.50 46.00 L53.00 46.50 L53.50 47.00 L54.00 47.50 L54.50 48.00 L55.00 48.50 L55.50 49.00 L56.00 49.50 L56.50 50.00 L57.00 50.50 L57.50 51.00 L58.00 51.50 L58.50 52.00 L59.00 52.50 L59.50 53.00 L60.50 53.00 L61.00 53.50 L61.50 54.00 L62.00 54.50 L62.00 55.50 L62.50 56.00 L63.00 55.50 L63.50 55.00 L64.50 55.00 L65.50 55.00 L66.00 54.50 L66.50 54.00 L67.50 54.00 L68.50 54.00 L69.50 54.00 L70.50 54.00 L71.50 54.00 L72.00 54.50 L72.50 55.00 L73.50 55.00 L74.50 55.00 L75.00 55.50 L75.50 56.00 L76.50 56.00 L77.00 56.50 L77.50 57.00 L78.50 57.00 L79.00 57.50 L79.50 58.00 L80.00 58.50 L80.50 59.00 L81.00 59.50 L81.50 60.00 L82.00 60.50 L82.50 61.00 L83.00 61.50 L83.50 62.00 L84.00 62.50 L84.50 63.00 L85.00 63.50 L85.50 64.00 L86.00 64.50 L86.50 65.00 L87.00 65.50 L87.50 66.00 L88.00 66.50 L88.50 67.00 L89.00 67.50 L89.50 68.00 L90.00 68.50 L90.50 69.00 L91.00 69.50 L91.50 70.00 L92.00 70.50 L92.50 71.00 L93.00 71.50 L93.50 72.00 L94.00 72.50 L94.50 73.00 L95.00 73.50 L95.50 74.00 L96.00 74.50 L96.50 75.00 L97.00 75.50 L97.50 76.00 L98.00 76.50 L98.50 77.00 L99.00 77.50 L99.50 78.00 L100.00 78.50 L100.50 79.00 L101.00 79.50 L101.50 80.00 L102.00 80.50 L102.50 81.00 L103.00 81.50 L103.50 82.00 L104.00 82.50 L104.00 83.50 L104.50 84.00 L105.00 84.50 L105.00 85.50 L105.50 86.00 L106.00 86.50 L106.00 87.50 L106.00 88.50 L105.50 89.00 L105.00 89.50 L105.00 90.50 L105.00 91.50 L104.50 92.00 L104.00 92.50 L103.50 93.00 L103.00 93.50 L102.50 94.00 L102.00 94.50 L101.50 95.00 L101.00 95.50 L100.50 96.00 L100.00 96.50 L99.50 97.00 L99.00 97.50 L98.50 98.00 L98.00 98.50 L97.50 99.00 L97.00 99.50 L96.50 100.00 L96.00 100.50 L95.50 101.00 L95.00 101.50 L94.50 102.00 L94.00 102.50 L93.50 103.00 L93.00 103.50 L92.50 104.00 L92.00 104.50 L91.50 105.00 L90.50 105.00 L90.00 105.50 L89.50 106.00 L88.50 106.00 L87.50 106.00 L86.50 106.00 L85.50 106.00 L85.00 105.50 L84.50 105.00 L83.50 105.00 L83.00 104.50 L82.50 104.00 L82.00 103.50 L81.50 103.00 L81.00 102.50 L80.50 102.00 L80.00 101.50 L79.50 101.00 L79.00 100.50 L78.50 100.00 L78.00 99.50 L77.50 99.00 L77.00 98.50 L76.50 98.00 L76.00 97.50 L75.50 97.00 L75.00 96.50 L74.50 96.00 L74.00 95.50 L73.50 95.00 L73.00 94.50 L72.50 94.00 L72.00 93.50 L71.50 93.00 L71.00 92.50 L70.50 92.00 L70.00 91.50 L69.50 91.00 L69.00 90.50 L68.50 90.00 L68.00 89.50 L67.50 89.00 L67.00 88.50 L66.50 88.00 L66.00 87.50 L65.50 87.00 L65.00 86.50 L64.50 86.00 L64.00 85.50 L63.50 85.00 L63.00 84.50 L62.50 84.00 L62.00 83.50 L61.50 83.00 L61.00 82.50 L60.50 82.00 L60.00 81.50 L59.50 81.00 L59.00 80.50 L58.50 80.00 L58.00 79.50 L57.50 79.00 L57.00 78.50 L56.50 78.00 L56.00 77.50 L56.00 76.50 L55.50 76.00 L55.00 75.50 L55.00 74.50 L55.00 73.50 L54.50 73.00 L54.00 72.50 L54.00 71.50 L54.00 70.50 L54.00 69.50 L54.00 68.50 L54.00 67.50 L54.00 66.50 L54.50 66.00 L55.00 65.50 L55.00 64.50 L55.00 63.50 L55.00 62.50 L54.50 62.00 L54.00 61.50 L53.50 61.00 L53.00 60.50 L52.50 60.00 L52.00 59.50 L51.50 59.00 L51.00 58.50 L50.50 58.00 L50.00 57.50 L49.50 57.00 L49.00 56.50 L48.50 56.00 L48.00 55.50 L47.50 55.00 L47.00 54.50 L46.50 54.00 L46.00 53.50 L45.50 53.00 L45.00 52.50 L44.50 52.00 L44.00 51.50 L43.50 51.00 L43.00 50.50 L42.50 50.00 L42.00 49.50 L41.50 49.00 L41.00 48.50 L40.50 48.00 L40.00 47.50 L39.50 47.00 L39.00 46.50 L38.50 46.00 L38.00 45.50 L38.00 44.50 L37.50 44.00 L37.00 43.50 L36.50 43.00 L35.50 43.00 L35.00 42.50 L34.50 42.00 L34.00 41.50 L33.50 41.00 L32.50 41.00 L31.50 41.00 L30.50 41.00 L29.50 41.00 L28.50 41.00 L27.50 41.00 L26.50 41.00 L25.50 41.00 L24.50 41.00 L23.50 41.00 L22.50 41.00 L21.50 41.00 L21.00 40.50 L20.50 40.00 L20.00 39.50 L20.00 38.50 L19.50 38.00 L19.00 37.50 L18.50 37.00 L18.00 36.50 L17.50 36.00 L17.00 35.50 L17.00 34.50 L16.50 34.00 L16.00 33.50 L15.50 33.00 L15.00 32.50 L14.50 32.00 L14.00 31.50 L14.00 30.50 L13.50 30.00 L13.00 29.50 L12.50 29.00 L12.00 28.50 L11.50 28.00 L11.00 27.50 L11.00 26.50 L10.50 26.00 L10.00 25.50 L9.50 25.00 L9.00 24.50 L8.50 24.00 L8.00 23.50 L8.00 22.50 L7.50 22.00 L7.00 21.50 L6.50 21.00 L6.00 20.50 L5.50 20.00 L5.00 19.50 L5.00 18.50 L4.50 18.00 L4.00 17.50 L3.50 17.00 L3.00 16.50 L3.00 15.50 L3.00 14.50 L3.50 14.00 L4.00 13.50 L4.50 13.00 L5.50 13.00 L6.00 12.50 L6.00 11.50 L6.50 11.00 L7.00 10.50 L7.50 10.00 L8.00 9.50 L8.50 9.00 L9.00 8.50 L9.50 8.00 L10.00 7.50 L10.50 7.00 L11.00 6.50 L11.50 6.00 L12.00 5.50 L12.50 5.00 L13.00 4.50 L13.50 4.00 L14.00 3.50 L14.50 3.00 Z M35.50 54.00 L36.50 54.00 L37.50 54.00 L38.00 54.50 L38.50 55.00 L39.50 55.00 L40.00 55.50 L40.50 56.00 L41.00 56.50 L41.50 57.00 L42.00 57.50 L42.50 58.00 L43.00 58.50 L43.00 59.50 L43.50 60.00 L44.50 60.00 L45.00 60.50 L45.00 61.50 L45.50 62.00 L46.00 62.50 L46.50 63.00 L47.50 63.00 L48.00 63.50 L48.00 64.50 L48.00 65.50 L48.00 66.50 L48.00 67.50 L48.00 68.50 L48.00 69.50 L48.00 70.50 L48.00 71.50 L48.00 72.50 L48.00 73.50 L48.50 74.00 L49.00 74.50 L49.00 75.50 L49.00 76.50 L49.00 77.50 L48.50 78.00 L48.00 78.50 L47.50 79.00 L47.00 79.50 L46.50 80.00 L46.00 80.50 L45.50 81.00 L45.00 81.50 L44.50 82.00 L44.00 82.50 L43.50 83.00 L43.00 83.50 L42.50 84.00 L42.00 84.50 L41.50 85.00 L41.00 85.50 L40.50 86.00 L40.00 86.50 L39.50 87.00 L39.00 87.50 L38.50 88.00 L38.00 88.50 L37.50 89.00 L37.00 89.50 L36.50 90.00 L36.00 90.50 L35.50 91.00 L35.00 91.50 L34.50 92.00 L34.00 92.50 L33.50 93.00 L33.00 93.50 L32.50 94.00 L32.00 94.50 L31.50 95.00 L31.00 95.50 L30.50 96.00 L30.00 96.50 L29.50 97.00 L29.00 97.50 L28.50 98.00 L28.00 98.50 L27.50 99.00 L27.00 99.50 L26.50 100.00 L26.00 100.50 L25.50 101.00 L25.00 101.50 L24.50 102.00 L24.00 102.50 L23.50 103.00 L23.00 103.50 L22.50 104.00 L21.50 104.00 L21.00 104.50 L20.50 105.00 L19.50 105.00 L19.00 105.50 L18.50 106.00 L17.50 106.00 L16.50 106.00 L15.50 106.00 L14.50 106.00 L13.50 106.00 L12.50 106.00 L12.00 105.50 L11.50 105.00 L10.50 105.00 L9.50 105.00 L9.00 104.50 L8.50 104.00 L8.00 103.50 L7.50 103.00 L6.50 103.00 L6.00 102.50 L6.00 101.50 L5.50 101.00 L4.50 101.00 L4.00 100.50 L4.00 99.50 L4.00 98.50 L3.50 98.00 L3.00 97.50 L3.00 96.50 L2.50 96.00 L2.00 95.50 L2.00 94.50 L2.00 93.50 L2.00 92.50 L2.00 91.50 L2.00 90.50 L2.50 90.00 L3.00 89.50 L3.00 88.50 L3.00 87.50 L3.50 87.00 L4.00 86.50 L4.00 85.50 L4.50 85.00 L5.00 84.50 L5.50 84.00 L6.00 83.50 L6.50 83.00 L7.00 82.50 L7.50 82.00 L8.00 81.50 L8.50 81.00 L9.00 80.50 L9.50 80.00 L10.00 79.50 L10.50 79.00 L11.00 78.50 L11.50 78.00 L12.00 77.50 L12.50 77.00 L13.00 76.50 L13.50 76.00 L14.00 75.50 L14.50 75.00 L15.00 74.50 L15.50 74.00 L16.00 73.50 L16.50 73.00 L17.00 72.50 L17.50 72.00 L18.00 71.50 L18.50 71.00 L19.00 70.50 L19.50 70.00 L20.00 69.50 L20.50 69.00 L21.00 68.50 L21.50 68.00 L22.00 67.50 L22.50 67.00 L23.00 66.50 L23.50 66.00 L24.00 65.50 L24.50 65.00 L25.00 64.50 L25.50 64.00 L26.00 63.50 L26.50 63.00 L27.00 62.50 L27.50 62.00 L28.00 61.50 L28.50 61.00 L29.00 60.50 L29.50 60.00 L30.00 59.50 L30.50 59.00 L31.00 58.50 L31.50 58.00 L32.00 57.50 L32.50 57.00 L33.00 56.50 L33.50 56.00 L34.00 55.50 L34.50 55.00 L35.00 54.50 L35.50 54.00 Z M14.50 88.00 L14.00 88.50 L13.50 89.00 L12.50 89.00 L12.00 89.50 L11.50 90.00 L11.00 90.50 L11.00 91.50 L11.00 92.50 L11.00 93.50 L11.00 94.50 L11.00 95.50 L11.50 96.00 L12.00 96.50 L12.50 97.00 L13.50 97.00 L14.00 97.50 L14.50 98.00 L15.50 98.00 L16.00 97.50 L16.50 97.00 L17.50 97.00 L18.00 96.50 L18.50 96.00 L19.00 95.50 L19.50 95.00 L20.00 94.50 L20.00 93.50 L20.00 92.50 L20.00 91.50 L19.50 91.00 L19.00 90.50 L19.00 89.50 L18.50 89.00 L17.50 89.00 L17.00 88.50 L16.50 88.00 L15.50 88.00 L14.50 88.00 Z"/>
</svg>
