<?xml version="1.0" encoding="UTF-8" standalone="no"?>
<svg
   width="16"
   height="16"
   viewBox="0 0 16 16"
   fill="currentColor"
   version="1.1"
   id="svg1"
   sodipodi:docname="new-folder.svg"
   inkscape:version="1.3.2 (091e20e, 2023-11-25, custom)"
   xml:space="preserve"
   xmlns:inkscape="http://www.inkscape.org/namespaces/inkscape"
   xmlns:sodipodi="http://sodipodi.sourceforge.net/DTD/sodipodi-0.dtd"
   xmlns:xlink="http://www.w3.org/1999/xlink"
   xmlns="http://www.w3.org/2000/svg"
   xmlns:svg="http://www.w3.org/2000/svg"><defs
     id="defs1"><linearGradient
       id="linear-gradient"
       x1="173.22662"
       y1="83.041153"
       x2="269.62073"
       y2="83.041153"
       gradientUnits="userSpaceOnUse"><stop
         offset="0"
         stop-color="#7929d2"
         id="stop1" /><stop
         offset="1"
         stop-color="#0070c5"
         id="stop2" /></linearGradient><linearGradient
       id="linear-gradient-2"
       x1="179.78728"
       y1="-1.87884"
       x2="178.9799"
       y2="93.40757"
       gradientUnits="userSpaceOnUse"><stop
         offset="0"
         stop-color="#00aeff"
         id="stop3" /><stop
         offset="1"
         stop-color="#9454db"
         id="stop4" /></linearGradient><linearGradient
       id="linear-gradient-3"
       x1="232.84549"
       y1="37.632019"
       x2="212.26581"
       y2="1.98698"
       gradientUnits="userSpaceOnUse"><stop
         offset="0"
         stop-color="#66a9dc"
         id="stop5" /><stop
         offset="1"
         stop-color="#b1e4fa"
         id="stop6" /></linearGradient><linearGradient
       id="linear-gradient-4"
       x1="237.4232"
       y1="9.7026796"
       x2="249.11588"
       y2="90.576942"
       xlink:href="#linear-gradient-2" /><pattern
       id="EMFhbasepattern"
       patternUnits="userSpaceOnUse"
       width="6"
       height="6"
       x="0"
       y="0" /></defs><sodipodi:namedview
     id="namedview1"
     pagecolor="#ffffff"
     bordercolor="#000000"
     borderopacity="0.25"
     inkscape:showpageshadow="2"
     inkscape:pageopacity="0.0"
     inkscape:pagecheckerboard="0"
     inkscape:deskcolor="#d1d1d1"
     inkscape:zoom="26.892155"
     inkscape:cx="17.179732"
     inkscape:cy="3.774335"
     inkscape:window-width="2560"
     inkscape:window-height="1494"
     inkscape:window-x="-11"
     inkscape:window-y="-11"
     inkscape:window-maximized="1"
     inkscape:current-layer="svg1" /><path
     d="M 7.4394531,0.32617188 1.84375,3.6855469 1.2949219,4.6484375 v 6.7148435 l 0.5488281,0.951172 5.5957031,3.359375 h 1.1210938 l 0.578125,-0.347656 C 8.4048951,14.87216 7.8128372,14.213774 7.4394531,13.429688 v 0.957031 L 2.4023438,11.363281 V 5.5878906 L 7.4394531,8.3300781 V 9.5703125 C 8.0854123,8.2138347 9.3856251,7.2310307 10.935547,7.0371094 l 2.662109,-1.4492188 v 1.9316406 c 0.410966,0.2170804 0.784151,0.4959686 1.107422,0.8242188 V 4.6484375 L 14.15625,3.6855469 8.5605469,0.32617188 Z M 8,1.2890625 13.304688,4.46875 8,7.3671875 2.6933594,4.46875 Z"
     style="fill:#b180d7;stroke-width:1.11934"
     id="path2" /><path
     id="path14"
     style="fill:#c3c3c3;fill-opacity:1"
     d="M 11.5 7 C 11.308869 7 11.120409 7.01398 10.935547 7.0371094 C 9.3856265 7.2310305 8.0854117 8.2138361 7.4394531 9.5703125 C 7.1606424 10.155798 7 10.808335 7 11.5 C 7 12.191671 7.1606424 12.844198 7.4394531 13.429688 C 7.8128369 14.213773 8.4048958 14.87216 9.1386719 15.326172 C 9.8257451 15.751287 10.632675 16 11.5 16 C 13.985292 16 16 13.985292 16 11.5 C 16 10.269808 15.505078 9.1560725 14.705078 8.34375 C 14.381807 8.0155004 14.008622 7.7366112 13.597656 7.5195312 C 12.971024 7.1885331 12.25798 7 11.5 7 z M 11.5 9 C 11.7761 9 12 9.2238609 12 9.5 L 12 11 L 13.5 11 C 13.5332 11 13.566266 11.003566 13.597656 11.009766 C 13.827332 11.05495 14 11.257097 14 11.5 C 14 11.7761 13.7761 12 13.5 12 L 12.537109 12 L 12 12 L 12 12.322266 L 12 13.5 C 12 13.54037 11.993405 13.57959 11.984375 13.617188 C 11.93161 13.836752 11.735733 14 11.5 14 C 11.45746 14 11.41638 13.992402 11.376953 13.982422 C 11.160444 13.927509 11 13.733563 11 13.5 L 11 12.921875 L 11 12 L 9.5 12 C 9.2238609 12 9 11.7761 9 11.5 C 9 11.2239 9.2238609 11 9.5 11 L 11 11 L 11 9.5 C 11 9.2238609 11.2239 9 11.5 9 z " /></svg>
