<?xml version="1.0" encoding="UTF-8" standalone="no"?>
<svg
   width="16"
   height="16"
   viewBox="0 0 16 16"
   fill="none"
   version="1.1"
   id="svg1"
   sodipodi:docname="toolchain_icon_plus_dark.svg"
   xml:space="preserve"
   inkscape:version="1.3.2 (091e20e, 2023-11-25, custom)"
   xmlns:inkscape="http://www.inkscape.org/namespaces/inkscape"
   xmlns:sodipodi="http://sodipodi.sourceforge.net/DTD/sodipodi-0.dtd"
   xmlns="http://www.w3.org/2000/svg"
   xmlns:svg="http://www.w3.org/2000/svg"><defs
     id="defs1" /><sodipodi:namedview
     id="namedview1"
     pagecolor="#ffffff"
     bordercolor="#000000"
     borderopacity="0.25"
     inkscape:showpageshadow="2"
     inkscape:pageopacity="0.0"
     inkscape:pagecheckerboard="0"
     inkscape:deskcolor="#d1d1d1"
     inkscape:zoom="19.015625"
     inkscape:cx="15.645029"
     inkscape:cy="8.9137222"
     inkscape:window-width="2560"
     inkscape:window-height="1494"
     inkscape:window-x="-11"
     inkscape:window-y="-11"
     inkscape:window-maximized="1"
     inkscape:current-layer="svg1" /><path
     d="M13.51 4L8.51001 1H7.51001L2.51001 4L2.02002 4.85999V10.86L2.51001 11.71L7.51001 14.71H8.51001L13.51 11.71L14 10.86V4.85999L13.51 4ZM7.51001 13.5601L3.01001 10.86V5.69995L7.51001 8.15002V13.5601ZM3.27002 4.69995L8.01001 1.85999L12.75 4.69995L8.01001 7.29004L3.27002 4.69995ZM13.01 10.86L8.51001 13.5601V8.15002L13.01 5.69995V10.86Z"
     fill="#B180D7"
     id="path1" /><g
     inkscape:label="Layer 1"
     id="layer1"
     transform="matrix(0.09669372,0,0,0.09669372,2.1143736,0.44321441)"><rect
       style="fill:#181818;stroke-width:1.065;stroke-linecap:round;stroke-linejoin:round;paint-order:stroke markers fill;fill-opacity:1"
       id="rect1"
       width="31.384863"
       height="29.064581"
       x="92.813629"
       y="108.00629" /><path
       d="m 108.54745,97.750079 c -13.736285,0 -24.874565,11.138281 -24.874565,24.874561 0,13.73629 11.13828,24.87456 24.874565,24.87456 13.73629,0 24.87456,-11.13827 24.87456,-24.87456 0,-13.73628 -11.13827,-24.874561 -24.87456,-24.874561 z m 11.05536,27.638401 h -8.29152 V 133.68 c 0,1.52564 -1.2382,2.76384 -2.76384,2.76384 -1.52564,0 -2.76384,-1.2382 -2.76384,-2.76384 v -8.29152 h -8.291525 c -1.52564,0 -2.76384,-1.2382 -2.76384,-2.76384 0,-1.52564 1.2382,-2.76384 2.76384,-2.76384 h 8.291525 v -8.29152 c 0,-1.52564 1.2382,-2.76384 2.76384,-2.76384 1.52564,0 2.76384,1.2382 2.76384,2.76384 v 8.29152 h 8.29152 c 1.52564,0 2.76384,1.2382 2.76384,2.76384 0,1.52564 -1.2382,2.76384 -2.76384,2.76384 z"
       id="path1-0"
       style="fill:#cccccc;stroke-width:5.52768;fill-opacity:1"
       sodipodi:nodetypes="sssssscssscssscssscsss" /></g></svg>
