<?xml version="1.0" encoding="UTF-8" standalone="no"?>
<!-- Created with Inkscape (http://www.inkscape.org/) -->

<svg
   width="150mm"
   height="150mm"
   viewBox="0 0 150 150"
   version="1.1"
   id="svg1"
   xml:space="preserve"
   inkscape:version="1.4.2 (ebf0e940, 2025-05-08)"
   sodipodi:docname="west_icon_dark.svg"
   xmlns:inkscape="http://www.inkscape.org/namespaces/inkscape"
   xmlns:sodipodi="http://sodipodi.sourceforge.net/DTD/sodipodi-0.dtd"
   xmlns:xlink="http://www.w3.org/1999/xlink"
   xmlns="http://www.w3.org/2000/svg"
   xmlns:svg="http://www.w3.org/2000/svg"><sodipodi:namedview
     id="namedview1"
     pagecolor="#ffffff"
     bordercolor="#000000"
     borderopacity="0.25"
     inkscape:showpageshadow="2"
     inkscape:pageopacity="0.0"
     inkscape:pagecheckerboard="0"
     inkscape:deskcolor="#d1d1d1"
     inkscape:document-units="mm"
     showguides="true"
     inkscape:zoom="0.90509668"
     inkscape:cx="203.2932"
     inkscape:cy="290.57669"
     inkscape:window-width="1472"
     inkscape:window-height="805"
     inkscape:window-x="0"
     inkscape:window-y="33"
     inkscape:window-maximized="0"
     inkscape:current-layer="layer1" /><defs
     id="defs1"><linearGradient
       id="linearGradient1"
       inkscape:collect="always"><stop
         style="stop-color:#4a9af1;stop-opacity:1;"
         offset="0.38025597"
         id="stop1" /><stop
         style="stop-color:#6f68dc;stop-opacity:1;"
         offset="1"
         id="stop2" /></linearGradient><linearGradient
       id="linear-gradient"
       x1="173.22662"
       y1="83.041153"
       x2="269.62073"
       y2="83.041153"
       gradientUnits="userSpaceOnUse"><stop
         offset="0"
         stop-color="#7929d2"
         id="stop1-0" /><stop
         offset="1"
         stop-color="#0070c5"
         id="stop2-5" /></linearGradient><linearGradient
       id="linear-gradient-2"
       x1="179.78728"
       y1="-1.87884"
       x2="178.9799"
       y2="93.40757"
       gradientUnits="userSpaceOnUse"><stop
         offset="0"
         stop-color="#00aeff"
         id="stop3" /><stop
         offset="1"
         stop-color="#9454db"
         id="stop4" /></linearGradient><linearGradient
       id="linear-gradient-3"
       x1="232.84549"
       y1="37.632019"
       x2="212.26581"
       y2="1.98698"
       gradientUnits="userSpaceOnUse"><stop
         offset="0"
         stop-color="#66a9dc"
         id="stop5" /><stop
         offset="1"
         stop-color="#b1e4fa"
         id="stop6" /></linearGradient><linearGradient
       id="linear-gradient-4"
       x1="237.4232"
       y1="9.7026796"
       x2="249.11588"
       y2="90.576942"
       xlink:href="#linear-gradient-2" /><linearGradient
       inkscape:collect="always"
       xlink:href="#linearGradient1"
       id="linearGradient3"
       gradientUnits="userSpaceOnUse"
       x1="40.685558"
       y1="71.347878"
       x2="154.40039"
       y2="184.47806"
       gradientTransform="translate(14.989597,29.872052)" /><linearGradient
       inkscape:collect="always"
       xlink:href="#linearGradient1"
       id="linearGradient4"
       gradientUnits="userSpaceOnUse"
       x1="40.685558"
       y1="71.347878"
       x2="154.40039"
       y2="184.47806"
       gradientTransform="translate(14.989597,29.872052)" /><linearGradient
       inkscape:collect="always"
       xlink:href="#linearGradient1"
       id="linearGradient5"
       gradientUnits="userSpaceOnUse"
       x1="40.685558"
       y1="71.347878"
       x2="154.40039"
       y2="184.47806"
       gradientTransform="translate(14.989597,29.872052)" /></defs><g
     inkscape:label="Layer 1"
     inkscape:groupmode="layer"
     id="layer1"
     transform="translate(-32.384812,-113.90099)"><g
       id="g1"
       transform="matrix(1.5666817,0,0,1.5666817,-89.320589,-110.1227)"><path
         d="m 162.99101,165.7898 c 3.3516,3.21624 4.87863,7.18482 4.98884,11.75949 0.007,4.36193 -1.81108,8.10798 -4.76973,11.25926 -3.35893,3.23372 -7.46314,4.40467 -12.02522,4.38706 -0.28225,0.001 -0.56449,0.002 -0.85528,0.003 -0.93938,0.003 -1.87871,0.002 -2.81809,5.3e-4 -0.67599,0.001 -1.35197,0.003 -2.02796,0.004 -1.6413,0.003 -3.28259,0.004 -4.92389,0.003 -1.33382,-5.3e-4 -2.66764,-1e-5 -4.00145,0.001 -0.19018,1.6e-4 -0.38036,2.7e-4 -0.57631,5.3e-4 -0.38639,2.7e-4 -0.77278,5.3e-4 -1.15917,0.001 -3.61758,0.003 -7.23515,0.002 -10.85272,8e-4 -3.30961,-0.001 -6.61919,0.002 -9.9288,0.007 -3.40102,0.005 -6.80202,0.007 -10.20304,0.006 -1.9084,-5.3e-4 -3.81677,1.5e-4 -5.725156,0.004 -1.79274,0.003 -3.585432,0.003 -5.378175,-5.3e-4 -0.65863,-5.3e-4 -1.317262,1.1e-4 -1.97589,0.002 -0.897379,0.003 -1.794618,5.3e-4 -2.691992,-0.003 -0.262009,0.002 -0.524015,0.004 -0.793962,0.006 -1.30211,-0.0103 -2.23983,-0.0236 -3.281836,-0.89867 -0.760293,-1.15355 -0.989618,-2.06852 -0.79375,-3.43959 0.54451,-0.91168 1.233035,-1.52758 2.116667,-2.11666 0.536022,-0.0659 0.536022,-0.0659 1.163145,-0.0656 0.358876,-0.002 0.358876,-0.002 0.725004,-0.004 0.263186,0.001 0.526372,0.003 0.797536,0.004 0.419028,-9e-4 0.419028,-9e-4 0.846521,-0.002 0.940811,-10e-4 1.881574,9.5e-4 2.822379,0.003 0.672708,-2.9e-4 1.345417,-8.5e-4 2.018123,-0.002 1.451374,-0.001 2.902733,-9.8e-4 4.354107,4.7e-4 2.296009,0.002 4.591999,-7.9e-4 6.888009,-0.005 0.78579,-0.001 1.57158,-0.002 2.35737,-0.004 0.2946,-4.3e-4 0.2946,-4.3e-4 0.59514,-8.8e-4 2.23637,-0.003 4.47274,-0.005 6.70911,-0.007 0.20445,-1.4e-4 0.4089,-2.9e-4 0.61954,-4.5e-4 3.30846,-0.002 6.61693,-10e-4 9.92539,2.2e-4 3.39889,0.001 6.79774,-0.002 10.19662,-0.01 2.09495,-0.005 4.18983,-0.005 6.28478,-9e-5 1.60829,0.003 3.21648,0 4.82477,-0.006 0.65784,-0.001 1.3157,-4.2e-4 1.97355,0.003 5.73268,0.061 5.73268,0.061 10.53679,-2.82722 0.75642,-0.88103 1.28836,-1.84704 1.76837,-2.90008 0.14478,-0.30133 0.14478,-0.30133 0.29249,-0.60875 0.81568,-2.46129 0.35816,-5.15277 -0.6935,-7.44761 -1.17334,-2.01629 -3.04566,-3.50129 -5.271,-4.25503 -2.70897,-0.49555 -5.54219,-0.44774 -7.88996,1.05109 -1.97532,1.4049 -3.2313,3.10589 -3.90053,5.43947 -0.14093,0.86957 -0.24842,1.73936 -0.3545,2.61379 -0.18728,0.88541 -0.41922,1.43159 -0.96842,2.14871 -1.10029,0.66316 -2.1274,0.82704 -3.38997,0.66145 -0.9885,-0.46517 -1.32607,-0.79437 -1.9017,-1.71979 -0.15242,-0.76473 -0.15076,-1.5044 -0.13229,-2.28203 0.003,-0.21176 0.006,-0.42352 0.009,-0.64169 0.0555,-1.74087 0.41561,-3.17908 1.1821,-4.74919 0.0795,-0.18554 0.15894,-0.37108 0.24081,-0.56224 1.7955,-3.97964 5.18335,-6.59495 9.15603,-8.16798 5.6061,-1.99296 11.43929,-0.37058 15.89258,3.35348 z"
         fill="#5980e5"
         id="path5"
         style="fill:url(#linearGradient3);fill-opacity:1;stroke-width:0.264583" /><path
         d="m 91.144315,201.25618 c 0.241242,-0.001 0.482485,-0.003 0.731038,-0.004 0.808716,-0.004 1.617388,-0.004 2.426113,-0.004 0.579835,-0.002 1.159669,-0.004 1.739502,-0.007 1.576177,-0.006 3.15234,-0.008 4.728532,-0.009 0.98585,-9.7e-4 1.97171,-0.003 2.95756,-0.005 3.26506,-0.006 6.5301,-0.01 9.79516,-0.0107 0.17596,-5e-5 0.35192,-9e-5 0.53321,-1.4e-4 0.26426,-7e-5 0.26426,-7e-5 0.53387,-1.5e-4 2.84835,-9.3e-4 5.69665,-0.008 8.54499,-0.018 2.93009,-0.0101 5.86016,-0.0151 8.79027,-0.0153 1.64278,-2.1e-4 3.2855,-0.002 4.92827,-0.01 1.5478,-0.007 3.09547,-0.007 4.64327,-0.003 0.56525,4.8e-4 1.13051,-0.001 1.69574,-0.005 5.26059,-0.0371 9.89675,0.81863 13.89049,4.56351 3.25054,3.45436 4.6,7.15353 4.53777,11.82874 -0.15183,4.65678 -1.99159,8.35773 -5.39767,11.55382 -3.40272,2.87462 -7.5059,3.9947 -11.90625,3.70416 -4.08084,-0.53784 -8.1164,-2.57193 -10.67738,-5.8167 -1.21355,-1.65229 -2.21438,-3.32355 -2.81637,-5.2958 -0.059,-0.18861 -0.11801,-0.37721 -0.1788,-0.57154 -0.48674,-1.82444 -0.85198,-4.10111 -0.0786,-5.87147 0.69249,-0.93228 1.36319,-1.341 2.50631,-1.5441 1.19887,-0.0465 1.8703,0.31084 2.77812,1.10795 0.58543,0.87813 0.63018,1.3315 0.74414,2.36471 0.39327,2.75287 1.29305,5.2391 3.46129,7.0497 2.17156,1.60813 4.60833,2.19838 7.28018,1.83038 2.4332,-0.46976 4.41727,-1.38657 5.93142,-3.43132 1.67504,-2.69958 2.10139,-5.46823 1.47898,-8.58449 -0.73989,-2.12844 -2.36266,-4.11819 -4.36046,-5.18211 -1.82596,-0.8281 -3.66122,-1.00376 -5.634,-0.99438 -0.3611,-10e-4 -0.3611,-10e-4 -0.7295,-0.003 -0.80207,-0.003 -1.6041,-0.002 -2.40618,-4.7e-4 -0.57686,-0.001 -1.15371,-0.003 -1.73056,-0.004 -1.23985,-0.003 -2.47968,-0.004 -3.71953,-0.005 -1.95996,-5.1e-4 -3.9199,-0.005 -5.87986,-0.0108 -4.86679,-0.013 -9.73359,-0.0212 -14.6004,-0.0268 -3.78509,-0.004 -7.57015,-0.0104 -11.35523,-0.022 -1.94901,-0.006 -3.89799,-0.008 -5.847012,-0.007 -1.211021,-4.5e-4 -2.422016,-0.004 -3.633027,-0.009 -0.562203,-0.001 -1.124412,-0.002 -1.686615,-2.9e-4 -0.766496,0.002 -1.532824,-0.002 -2.299305,-0.006 -0.223247,0.002 -0.446494,0.003 -0.676507,0.005 -1.223507,-0.0129 -2.029692,-0.10462 -3.021156,-0.90066 -0.763066,-1.15776 -0.965696,-2.06402 -0.79375,-3.43959 0.437166,-0.85814 0.757336,-1.42094 1.608618,-1.89199 1.064196,-0.30945 2.060239,-0.30033 3.163269,-0.2972 z"
         fill="#6275e1"
         id="path7"
         style="fill:url(#linearGradient4);fill-opacity:1;stroke-width:0.264583" /><path
         d="m 114.26943,148.87507 c 0.26416,-0.002 0.52831,-0.004 0.80047,-0.006 4.40984,0.0116 7.81667,1.79648 11.03964,4.73563 3.16641,3.30323 4.31613,7.51492 4.2385,11.98066 -0.15087,4.00582 -2.04419,7.64503 -4.84518,10.44174 -2.97205,2.69931 -6.70953,4.2127 -10.71834,4.21622 -0.32567,0.003 -0.32567,0.003 -0.65792,0.007 -0.71101,0.006 -1.42196,0.009 -2.133,0.0105 -0.49739,0.002 -0.99479,0.005 -1.49218,0.007 -1.03947,0.004 -2.07891,0.006 -3.11839,0.007 -1.33041,0.001 -2.66062,0.0114 -3.99097,0.0235 -1.02597,0.008 -2.05189,0.01 -3.07788,0.0101 -0.490526,10e-4 -0.981048,0.004 -1.47154,0.01 -0.685834,0.007 -1.371173,0.006 -2.057024,0.003 -0.201262,0.004 -0.402523,0.008 -0.609883,0.0119 -1.533776,-0.021 -2.154531,-0.43992 -3.188723,-1.49339 -0.489771,-0.97954 -0.387495,-2.10584 -0.264583,-3.175 0.5596,-0.95932 1.086916,-1.46251 2.116667,-1.85208 0.708669,-0.0499 1.38983,-0.0715 2.098257,-0.0676 0.210522,-9.5e-4 0.421044,-0.002 0.637945,-0.003 0.456627,-0.002 0.913261,-0.002 1.369891,-0.002 0.724309,2.6e-4 1.448513,-0.003 2.172803,-0.008 2.05917,-0.0122 4.11832,-0.0187 6.17751,-0.0205 1.26047,-0.001 2.52084,-0.008 3.78127,-0.0173 0.47877,-0.003 0.95756,-0.003 1.43634,-0.002 3.48538,0.0709 3.48538,0.0709 6.66765,-1.20318 0.21112,-0.12108 0.42224,-0.24215 0.63976,-0.3669 2.0169,-1.48263 3.36365,-3.5147 3.85816,-5.9831 0.26377,-2.68797 -0.36883,-5.14762 -1.85208,-7.40833 -1.78934,-1.9511 -3.60404,-3.06548 -6.26319,-3.23805 -2.07358,-0.0562 -3.84852,-0.033 -5.64307,1.12138 -0.18383,0.11221 -0.36766,0.22442 -0.55707,0.34003 -1.78679,1.20349 -2.98945,2.91459 -3.67626,4.95164 -0.15794,0.89102 -0.30283,1.77983 -0.42116,2.67684 -0.21903,1.35774 -0.63766,2.01345 -1.69551,2.87941 -0.82273,0.41136 -1.47179,0.34037 -2.38125,0.26458 -1.14785,-0.596 -1.905757,-1.16611 -2.381246,-2.38125 -0.476508,-3.53409 0.885701,-7.4117 2.973076,-10.23167 3.25007,-4.04115 7.30619,-6.27863 12.48851,-6.23864 z"
         fill="#4f8eeb"
         id="path8"
         style="fill:url(#linearGradient5);fill-opacity:1;stroke-width:0.264583" /></g></g></svg>
