<?xml version="1.0" encoding="UTF-8" standalone="no"?>
<svg
   version="1.1"
   width="565"
   height="477.06662"
   id="svg146"
   sodipodi:docname="ZWB - Copie.svg"
   inkscape:version="1.2.2 (732a01da63, 2022-12-09)"
   inkscape:export-filename="ZWB.png"
   inkscape:export-xdpi="96"
   inkscape:export-ydpi="96"
   xmlns:inkscape="http://www.inkscape.org/namespaces/inkscape"
   xmlns:sodipodi="http://sodipodi.sourceforge.net/DTD/sodipodi-0.dtd"
   xmlns="http://www.w3.org/2000/svg"
   xmlns:svg="http://www.w3.org/2000/svg">
  <defs
     id="defs150" />
  <sodipodi:namedview
     id="namedview148"
     pagecolor="#ffffff"
     bordercolor="#000000"
     borderopacity="0.25"
     inkscape:showpageshadow="2"
     inkscape:pageopacity="0.0"
     inkscape:pagecheckerboard="0"
     inkscape:deskcolor="#d1d1d1"
     showgrid="false"
     inkscape:zoom="0.33991535"
     inkscape:cx="-38.244816"
     inkscape:cy="-289.77803"
     inkscape:window-width="1276"
     inkscape:window-height="1481"
     inkscape:window-x="-9"
     inkscape:window-y="0"
     inkscape:window-maximized="0"
     inkscape:current-layer="svg146" />
  <g
     id="g5340"
     transform="translate(-237,-241.10528)">
    <path
       d="M 0,0 C 6.4128765,5.4577673 6.4128765,5.4577673 8.9414063,7.7929687 19.576684,17.580654 31.517656,25.756658 44,33 l 2.010254,1.183105 C 87.476625,58.478547 134.20321,67.704655 181.46338,72.627441 271.86733,82.150873 271.86733,82.150873 302,99 l 1.96045,1.08643 C 312.67077,104.96429 320.50793,110.35856 328,117 l 1.48779,1.30518 c 30.74281,27.05718 50.62187,63.80454 54.3335,104.8435 0.38438,6.13279 0.42353,12.27117 0.42871,18.41382 l 0.002,2.19104 C 384.17644,295.15773 366.94469,344.68884 335,385 l -1.48633,1.87988 C 321.27179,402.16096 307.16482,416.88025 291,428 l -3.09766,2.17187 C 250.92291,455.03052 208.10631,468.05316 163.7041,459.59521 133.66542,452.98323 108.05899,436.34923 91.25,410.375 90.154399,408.59081 89.07058,406.79932 88,405 l -1.578125,-2.62109 c -2.650634,-4.55123 -4.462595,-7.73321 -5.233836,-9.56089 L 84,394 l 3.417969,1.35547 c 8.806705,3.41216 17.569631,6.35257 26.769531,8.51953 l 2.60425,0.61401 c 8.16726,1.8471 16.0814,2.66886 24.43872,2.71411 l 2.62009,0.0211 c 2.77903,0.0173 5.55786,0.0237 8.33694,0.0258 l 2.8674,0.003 C 168.59564,407.24328 181.71949,406.86946 195,404 l 2.14014,-0.42188 C 235.23314,396.05874 269.89586,377.60827 298,351 l 2.67187,-2.51172 C 329.37215,320.72036 347.56075,282.5187 348.34937,242.45435 348.42629,231.33817 348.28424,220.69865 345,210 l -0.58594,-1.91602 C 339.62412,192.90104 331.62211,179.83341 321,168 l -2.03906,-2.32422 C 293.79852,138.67566 255.74843,133.17405 220.9375,130.375 c -4.86622,-0.40485 -9.73193,-0.81576 -14.59766,-1.22656 l -3.5486,-0.29618 c -7.15336,-0.60358 -14.2861,-1.30182 -21.41664,-2.13052 -5.39873,-0.62554 -10.80252,-1.15364 -16.21444,-1.65143 -1.67776,-0.15734 -3.35549,-0.31489 -5.03321,-0.47265 -2.53041,-0.23774 -5.0609,-0.47235 -7.59253,-0.69678 -16.51408,-1.47239 -32.65873,-4.13449 -48.40942,-9.46338 l -3.02295,-1.02002 C 60.585943,99.168579 29.490376,68.131325 10.968262,29.868652 0,6.4502292 0,6.4502292 0,0 Z"
       fill="#065581"
       transform="translate(237,256)"
       id="path4"
       sodipodi:nodetypes="ccccccccccccccccccccccccccccccccccccccccccccccccc"
       style="fill:#457799;fill-opacity:1" />
    <path
       d="M 0,0 2.0058594,0.77514648 C 23.899878,9.2302608 45.853207,17.504605 67.89502,25.56665 c 7.070017,2.586124 14.136928,5.180334 21.19873,7.788819 16.7309,6.178707 33.47686,12.309245 50.26047,18.343475 9.64677,3.470084 19.26149,7.005203 28.82449,10.701447 5.01166,1.932156 10.05238,3.735405 15.13379,5.474609 11.11113,3.816812 21.88272,8.526933 32.6875,13.125 -3.4706,5.319952 -7.02009,10.487031 -11,15.4375 -0.95886,1.206612 -1.91717,2.413666 -2.875,3.62109 l -1.52734,1.92139 C 197.7074,105.63432 194.85608,109.31894 192,113 c -4.15179,5.34515 -8.3131,10.6823 -12.5,16 -9.03154,11.4744 -17.98309,23.01087 -26.875,34.59375 -3.19128,4.14866 -6.40927,8.27653 -9.625,12.40625 -6.70961,8.6187 -13.38559,17.26222 -20.01172,25.94531 -1.07936,1.41411 -2.15879,2.82817 -3.23828,4.24219 l -1.65039,2.16211 c -4.02291,5.26217 -8.08606,10.49182 -12.16211,15.71289 -4.8209,6.17979 -9.571543,12.40555 -14.258057,18.68774 C 87.490082,248.36202 83.249596,253.93374 79,259.5 c -4.933164,6.46678 -9.860008,12.93799 -14.75,19.4375 l -1.445313,1.91406 C 60.073109,284.49104 57.489307,288.19043 55,292 c 1.156819,-17.86399 1.367643,-37.20951 1.25,-54.0625 l -0.0094,-3.69244 C 56.092593,184.39171 53.765828,134.39925 37,87 L 35.821289,83.659668 C 26.522613,57.636032 15.491421,31.981435 2.7419434,7.454834 0,2.1765181 0,2.1765181 0,0 Z"
       fill="#05466e"
       transform="translate(586,247)"
       id="path6"
       sodipodi:nodetypes="ccccccccccccccccsccccccccccccc"
       style="fill:#5da0ce;fill-opacity:1" />
    <path
       d="M 0,0 2.9726563,1.5390625 C 29.881461,15.331803 57.692952,23.072178 87.6875,26.390625 l 3.4599,0.383423 c 10.40253,1.122205 20.81915,2.049052 31.24323,2.944702 l 2.56072,0.220451 c 7.8819,0.677647 15.7643,1.349365 23.64777,2.008553 4.36954,0.365749 8.73829,0.739921 13.10668,1.119156 1.63408,0.140249 3.26842,0.277446 4.90303,0.411224 31.49276,2.580106 61.60222,10.454014 82.88726,35.326553 C 263.42808,86.013223 268.19196,107.26967 267,129 c -0.46916,3.12235 -1.13109,5.95882 -2,9 -3.16661,-4.04398 -5.82063,-8.41031 -8.50781,-12.7793 C 251.79112,117.98299 246.28863,112.89467 240,107.8125 231.99549,101.55938 223.79449,97.005754 214.1875,93.75 l -2.07788,-0.709229 C 195.8454,87.835701 179.12534,86.91322 162.20825,85.651062 146.33402,84.464378 130.46961,83.267736 114.65234,81.457031 l -3.14888,-0.358154 C 77.266166,77.027021 50.222858,62.416952 26,38 L 23.78125,35.808594 C 15.458074,27.157622 9.3080261,17.161751 3,7 L 1.1210937,4.0234375 C 0,2 0,2 0,0 Z"
       fill="#065583"
       transform="translate(297,372)"
       id="path8"
       sodipodi:nodetypes="cccccccccccccccccccccccc"
       style="fill:#457799;fill-opacity:1" />
    <path
       d="M -3.9897483,-1.9950716 C 12.062928,3.8622161 32.08497,11.766968 48.096008,17.737152 77.17889,28.580747 106.32307,39.250381 135.52917,49.757446 c 9.58838,3.451187 19.14446,6.969199 28.65027,10.643189 5.0114,1.932134 10.0519,3.735245 15.13306,5.474365 11.11113,3.816812 21.88272,8.526933 32.6875,13.125 -3.01675,1.591571 -6.04679,2.784132 -9.26929,3.897461 l -3.23115,1.12146 -3.5269,1.215454 c -1.88547,0.654159 -3.77094,1.308327 -5.6563,1.962799 -2.02161,0.701414 -4.04361,1.401704 -6.06569,2.101776 -7.11418,2.463841 -14.22424,4.939511 -21.3327,7.4198 l -2.21748,0.77372 c -15.97339,5.57728 -31.90044,11.28121 -47.81269,17.03031 -2.01057,0.72641 -4.0213,1.45237 -6.03206,2.17827 -3.74685,1.35301 -7.492857,2.70836 -11.238553,4.06458 l -3.35942,1.21545 -3.090287,1.12146 -2.674346,0.96979 c -1.732234,0.64455 -3.448976,1.33168 -5.151413,2.05125 C 78.382698,127.23103 76.938199,127.14319 74,126 c -1.538818,-2.02759 -1.538818,-2.02759 -2.839844,-4.72266 L 69.651367,118.24487 68.0625,114.9375 c -1.155281,-2.30974 -2.315569,-4.61697 -3.480469,-6.92187 l -1.79834,-3.56446 C 57.936571,95.072731 52.429108,86.049435 47,77 L 45.974731,75.290527 C 37.336732,60.896858 28.581456,46.579654 19.549316,32.429199 17.79303,29.675488 16.042802,26.917973 14.292969,24.160156 13.028788,22.169181 11.764467,20.178294 10.5,18.1875 L 8.7180176,15.381348 7.03125,12.730469 5.4492187,10.243652 C 4.1947281,8.3014743 2.9054343,6.3919494 1.59375,4.4882812 0,2 -3.9897483,0.00492838 -3.9897483,-1.9950716 Z"
       fill="#18a3de"
       id="path10"
       transform="translate(590,249)"
       sodipodi:nodetypes="cccccccccccscscccccccccccccccccccccc"
       style="fill:#98cbe6;fill-opacity:1" />
    <path
       d="M 0,0 3.5234375,1.7578125 C 23.167261,11.415007 41.285616,16.153118 63,19 c 1.364819,0.192343 2.729445,0.386071 4.09375,0.582031 6.371597,0.866932 12.743661,1.500435 19.148437,2.0625 C 133.34855,25.779642 175.74749,35.10863 207.57178,72.864746 210.95553,77.084044 214.02757,81.484107 217,86 l 1.27539,1.910156 C 231.44408,107.93627 239.65151,131.34025 243,155 c -3.22805,-3.0263 -6.01126,-6.2093 -8.75,-9.6875 C 230.04677,139.99942 225.62443,134.94977 221,130 l -2.30078,-2.46484 C 203.73554,112.03269 185.53417,99.929504 166,91 l -1.98975,-0.925293 C 141.42178,79.697416 117.15735,76.14892 92.691406,73.078125 68.532999,69.980482 50.57756,63.462576 32,47 L 29.773437,45.0625 C 17.091419,33.256694 5.8787159,14.526161 -1.7456699,-0.8947184 Z"
       fill="#18a2de"
       transform="translate(372,242)"
       id="path12"
       sodipodi:nodetypes="ccccccccccccccccccc"
       style="fill:#457799;fill-opacity:1" />
    <path
       d="M 0,0 C 1.6879326,0.4149108 3.375307,0.83209186 5.0625,1.25 L 8.4414063,2.0820313 C 10.689756,2.6620116 12.929003,3.2797368 15.152344,3.9492188 38.237206,10.764237 63.142463,12.244754 87.081329,13.574844 147.79194,16.950344 147.79194,16.950344 170,39 c 9.50098,12.241976 13.56658,26.552786 12,42 -1.04033,5.40669 -2.49539,10.707004 -4,16 l -0.58579,1.635184 C 176.18765,96.947684 174.77344,95.3125 173.375,93 164.187,78.862906 149.60558,70.98685 133.28906,67.394531 124.15851,65.820835 114.99422,64.974851 105.76099,64.301514 75.973244,62.118224 50.105948,54.889876 28,34 L 26.396973,32.520996 C 16.440912,23.287818 5.8603938,12.381042 0,0 Z"
       fill="#073b5e"
       transform="translate(361,462)"
       id="path14"
       sodipodi:nodetypes="ccccccccccccccc"
       style="fill:#457799;fill-opacity:1" />
    <path
       d="m 0,0 c 3.965546,1.8969174 9.1460216,9.865874 12.722656,15.660156 l 1.652832,2.699707 c 2.001252,3.25241 4.043239,6.477626 6.091309,9.700684 C 31.576281,45.5436 42.446986,63.175372 53,81 l 1.381348,2.333008 c 25.256251,42.805662 25.256251,42.805662 22.446777,66.264652 l -0.370834,3.22679 c -0.394916,3.41361 -0.800458,6.82584 -1.207291,10.23805 -0.276514,2.35676 -0.552963,4.71353 -0.829346,7.07031 C 72.568028,185.80618 70.494695,201.41533 68,217 c -0.528853,3.39463 -1.047951,6.79067 -1.5625,10.1875 l -0.364014,2.38354 C 65.088176,236.13688 64.290937,242.72084 63.5,249.3125 62.416569,258.32076 61.000144,267.1483 59,276 l -3.96875,15.90625 0.794708,-17.23209 C 53.689416,170.45536 59.372821,165.80105 35.821289,83.659668 26.522613,57.636032 15.491421,31.981435 2.7419434,7.454834 0,2.1765181 0,2.1765181 0,0 Z"
       fill="#073a5a"
       transform="translate(586,247)"
       id="path18"
       sodipodi:nodetypes="cccssccccccccccccccc"
       style="fill:#457799;fill-opacity:1" />
  </g>
</svg>
