<?xml version="1.0" encoding="utf-8"?>
<!-- Generator: Adobe Illustrator 27.0.0, SVG Export Plug-In . SVG Version: 6.00 Build 0)  -->
<svg version="1.1" id="a" xmlns="http://www.w3.org/2000/svg" xmlns:xlink="http://www.w3.org/1999/xlink" x="0px" y="0px"
	 viewBox="0 0 1000 1000" style="enable-background:new 0 0 1000 1000;" xml:space="preserve">
<style type="text/css">
	.st0{fill:#FFFFFF;}
</style>
<g>
	<path class="st0" d="M559.5,530.6l71.4,27.2c-4.8,25.1-12.4,46-22.7,62.8c-10.4,16.8-23.2,29.5-38.5,38s-34.8,12.8-58.5,12.8
		c-28.8,0-52.3-5.2-70.5-15.6c-18.2-10.4-33.9-28.8-47.2-55c-13.3-26.3-19.9-59.9-19.9-100.8c0-54.6,11.6-96.5,34.9-125.9
		c23.2-29.3,56.2-44,98.7-44c33.3,0,59.4,8.4,78.5,25.2c19,16.8,33.2,42.6,42.5,77.5L556,452.9c-2.4-10.1-5-17.5-7.9-22.1
		c-4.5-7.8-10.1-13.8-16.8-18s-14.1-6.3-22.2-6.3c-18.5,0-32.6,9.3-42.5,27.9c-7.5,13.8-11.2,35.5-11.2,65.1
		c0,36.6,4.5,61.7,13.4,75.3c9,13.6,21.5,20.4,37.6,20.4c16.1,0,27.5-5.5,35.5-16.5C550,567.6,555.9,551.6,559.5,530.6L559.5,530.6z
		"/>
	<path class="st0" d="M872.2,409.8L798.6,421c-2-12.7-5.2-21.6-9.7-26.8c-4.5-5.2-10.1-7.8-16.7-7.8c-11.9,0-21.2,7.5-27.8,22.5
		c-4.8,10.8-8.5,33.9-10.9,69.2c8.9-11.1,18-19.4,27.3-24.7c9.3-5.3,20-8,32.2-8c23.7,0,43.7,10.5,60.1,31.6
		c16.4,21,24.7,47.7,24.7,80c0,21.8-4.1,41.7-12.4,59.7c-8.3,18-19.7,31.7-34.4,40.9s-33,13.9-55.1,13.9c-26.5,0-47.7-5.6-63.7-16.9
		c-16-11.2-28.8-29.2-38.4-53.9c-9.6-24.7-14.4-57.4-14.4-98c0-59.6,10.1-103.2,30.2-130.9c20.2-27.7,48-41.5,83.7-41.5
		c21.2,0,37.9,3,50.1,9.1c12.2,6.1,22.3,14.9,30.5,26.6C861.8,377.5,868,392.2,872.2,409.8L872.2,409.8z M736.2,557.1
		c0,17.9,3.6,32,10.9,42.2c7.2,10.2,16.1,15.3,26.7,15.3c9.7,0,17.7-4.6,24.2-13.8s9.7-22.9,9.7-41.2s-3.4-32.9-10.2-42.7
		s-15.2-14.7-25.1-14.7s-18.9,4.8-25.8,14.3C739.6,525.9,736.2,539.5,736.2,557.1L736.2,557.1z"/>
	<path class="st0" d="M146.3,364.3c8.1-11.7,18.3-20.5,30.5-26.6s28.9-9.1,50.1-9.1c35.7,0,63.5,13.9,83.7,41.5
		c20.2,27.7,30.2,71.3,30.2,130.9c0,40.7-4.8,73.4-14.4,98.1S304,641.8,288,653c-16,11.3-37.2,16.9-63.7,16.9
		c-22.1,0-40.5-4.6-55.1-13.9c-14.7-9.2-26.1-22.9-34.4-40.9c-8.3-18-12.4-37.9-12.4-59.7c0-32.3,8.2-59,24.7-80
		c16.4-21,36.5-31.6,60.1-31.6c12.2,0,23,2.7,32.2,8c9.3,5.3,18.4,13.6,27.2,24.7c-2.4-35.4-6-58.4-10.9-69.2
		c-6.6-15-15.9-22.5-27.8-22.5c-6.6,0-12.2,2.6-16.7,7.8c-4.5,5.2-7.8,14.2-9.7,26.9L128,408.3C132,390.6,138.2,375.9,146.3,364.3
		L146.3,364.3z M253.4,514.9c-6.9-9.5-15.5-14.3-25.8-14.3s-18.3,4.9-25.1,14.7c-6.8,9.8-10.2,24.1-10.2,42.7s3.3,32,9.7,41.2
		c6.5,9.2,14.6,13.8,24.2,13.8c10.6,0,19.5-5.1,26.7-15.3s10.9-24.2,10.9-42.2C263.8,537.6,260.4,524.3,253.4,514.9L253.4,514.9z"/>
</g>
</svg>
