<?xml version="1.0" encoding="UTF-8" standalone="no"?>
<svg
   width="16"
   height="16"
   viewBox="0 0 16 16"
   fill="currentColor"
   version="1.1"
   id="svg1"
   sodipodi:docname="zephyr_icon_plus_light - Copie.svg"
   inkscape:version="1.3.2 (091e20e, 2023-11-25, custom)"
   xml:space="preserve"
   xmlns:inkscape="http://www.inkscape.org/namespaces/inkscape"
   xmlns:sodipodi="http://sodipodi.sourceforge.net/DTD/sodipodi-0.dtd"
   xmlns:xlink="http://www.w3.org/1999/xlink"
   xmlns="http://www.w3.org/2000/svg"
   xmlns:svg="http://www.w3.org/2000/svg"><defs
     id="defs1"><linearGradient
       id="linear-gradient"
       x1="173.22662"
       y1="83.041153"
       x2="269.62073"
       y2="83.041153"
       gradientUnits="userSpaceOnUse"><stop
         offset="0"
         stop-color="#7929d2"
         id="stop1" /><stop
         offset="1"
         stop-color="#0070c5"
         id="stop2" /></linearGradient><linearGradient
       id="linear-gradient-2"
       x1="179.78728"
       y1="-1.87884"
       x2="178.9799"
       y2="93.40757"
       gradientUnits="userSpaceOnUse"><stop
         offset="0"
         stop-color="#00aeff"
         id="stop3" /><stop
         offset="1"
         stop-color="#9454db"
         id="stop4" /></linearGradient><linearGradient
       id="linear-gradient-3"
       x1="232.84549"
       y1="37.632019"
       x2="212.26581"
       y2="1.98698"
       gradientUnits="userSpaceOnUse"><stop
         offset="0"
         stop-color="#66a9dc"
         id="stop5" /><stop
         offset="1"
         stop-color="#b1e4fa"
         id="stop6" /></linearGradient><linearGradient
       id="linear-gradient-4"
       x1="237.4232"
       y1="9.7026796"
       x2="249.11588"
       y2="90.576942"
       xlink:href="#linear-gradient-2" /><pattern
       id="EMFhbasepattern"
       patternUnits="userSpaceOnUse"
       width="6"
       height="6"
       x="0"
       y="0" /><pattern
       id="EMFhbasepattern-9"
       patternUnits="userSpaceOnUse"
       width="6"
       height="6"
       x="0"
       y="0" /><pattern
       id="EMFhbasepattern-8"
       patternUnits="userSpaceOnUse"
       width="6"
       height="6"
       x="0"
       y="0" /><pattern
       id="EMFhbasepattern-6"
       patternUnits="userSpaceOnUse"
       width="6"
       height="6"
       x="0"
       y="0" /></defs><sodipodi:namedview
     id="namedview1"
     pagecolor="#ffffff"
     bordercolor="#000000"
     borderopacity="0.25"
     inkscape:showpageshadow="2"
     inkscape:pageopacity="0.0"
     inkscape:pagecheckerboard="0"
     inkscape:deskcolor="#d1d1d1"
     inkscape:zoom="32"
     inkscape:cx="-0.90625"
     inkscape:cy="10.015625"
     inkscape:window-width="2560"
     inkscape:window-height="1494"
     inkscape:window-x="-11"
     inkscape:window-y="-11"
     inkscape:window-maximized="1"
     inkscape:current-layer="svg1" /><path
     d="M 3.5,2 C 2.1192914,2 1,3.1192914 1,4.5 v 7 C 1,12.880699 2.1192914,14 3.5,14 H 7.765625 C 7.6439522,13.818485 7.5342144,13.628681 7.4394531,13.429688 7.3730137,13.290168 7.3141631,13.146756 7.2617187,13 H 3.5 C 2.6715708,13 2,12.328399 2,11.5 V 7 H 5.5859375 C 5.9837571,7 6.3651747,6.8418566 6.6464844,6.5605469 L 8.2070313,5 H 12.5 C 13.328399,5 14,5.6715708 14,6.5 V 7.7636719 C 14.253767,7.9339048 14.491417,8.1267979 14.705078,8.34375 14.809009,8.4492817 14.906783,8.5604808 15,8.6757813 V 6.5 C 15,5.1192914 13.880699,4 12.5,4 H 8.2070313 L 6.6464844,2.4394531 C 6.3651747,2.1581534 5.9837571,2 5.5859375,2 Z m 0,1 h 2.0859375 c 0.1325999,0 0.2597457,0.052714 0.3535156,0.1464844 L 7.2929687,4.5 5.9394531,5.8535156 C 5.8456832,5.9472855 5.7185374,6 5.5859375,6 H 2 V 4.5 C 2,3.6715708 2.6715708,3 3.5,3 Z"
     style="fill:#3b3b3b"
     id="path11" /><path
     id="path19"
     style="fill:#3b3b3b"
     d="M 11.5 7 C 11.308869 7 11.120409 7.01398 10.935547 7.0371094 C 9.3856293 7.2310301 8.0854105 8.2138389 7.4394531 9.5703125 C 7.160643 10.155796 7 10.808337 7 11.5 C 7 12.026847 7.0940822 12.530901 7.2617188 13 C 7.3141627 13.146756 7.3730138 13.290168 7.4394531 13.429688 C 7.5342143 13.62868 7.6439523 13.818485 7.765625 14 C 8.1233737 14.533699 8.5911223 14.987384 9.1386719 15.326172 C 9.8257437 15.751285 10.632677 16 11.5 16 C 13.985288 16 16 13.985288 16 11.5 C 16 10.429629 15.62431 9.4479954 15 8.6757812 C 14.906783 8.5604809 14.809009 8.4492816 14.705078 8.34375 C 14.491417 8.1267981 14.253767 7.9339046 14 7.7636719 C 13.869817 7.6763419 13.736999 7.593135 13.597656 7.5195312 C 12.971026 7.1885339 12.257978 7 11.5 7 z M 11.5 9 C 11.7761 9 12 9.2238615 12 9.5 L 12 11 L 13.5 11 C 13.5332 11 13.566266 11.003566 13.597656 11.009766 C 13.827328 11.054916 14 11.257097 14 11.5 C 14 11.516832 13.998597 11.534083 13.998047 11.550781 C 13.972437 11.802879 13.758843 12 13.5 12 L 12.537109 12 L 12 12 L 12 12.322266 L 12 13 L 12 13.5 C 12 13.54037 11.993405 13.57959 11.984375 13.617188 C 11.931615 13.83675 11.735733 14 11.5 14 C 11.45746 14 11.41638 13.992402 11.376953 13.982422 C 11.160444 13.927511 11 13.733563 11 13.5 L 11 13 L 11 12.921875 L 11 12 L 9.5 12 C 9.2238615 12 9 11.7761 9 11.5 C 9 11.2239 9.2238615 11 9.5 11 L 11 11 L 11 9.5 C 11 9.2238615 11.2239 9 11.5 9 z " /></svg>
