<?xml version="1.0" encoding="UTF-8" standalone="no"?>
<svg
   width="16"
   height="16"
   viewBox="0 0 16 16"
   fill="currentColor"
   version="1.1"
   id="svg1"
   sodipodi:docname="zephyr_icon_plus_dark.svg"
   inkscape:version="1.3.2 (091e20e, 2023-11-25, custom)"
   xml:space="preserve"
   xmlns:inkscape="http://www.inkscape.org/namespaces/inkscape"
   xmlns:sodipodi="http://sodipodi.sourceforge.net/DTD/sodipodi-0.dtd"
   xmlns:xlink="http://www.w3.org/1999/xlink"
   xmlns="http://www.w3.org/2000/svg"
   xmlns:svg="http://www.w3.org/2000/svg"><defs
     id="defs1"><linearGradient
       id="linear-gradient"
       x1="173.22662"
       y1="83.041153"
       x2="269.62073"
       y2="83.041153"
       gradientUnits="userSpaceOnUse"><stop
         offset="0"
         stop-color="#7929d2"
         id="stop1" /><stop
         offset="1"
         stop-color="#0070c5"
         id="stop2" /></linearGradient><linearGradient
       id="linear-gradient-2"
       x1="179.78728"
       y1="-1.87884"
       x2="178.9799"
       y2="93.40757"
       gradientUnits="userSpaceOnUse"><stop
         offset="0"
         stop-color="#00aeff"
         id="stop3" /><stop
         offset="1"
         stop-color="#9454db"
         id="stop4" /></linearGradient><linearGradient
       id="linear-gradient-3"
       x1="232.84549"
       y1="37.632019"
       x2="212.26581"
       y2="1.98698"
       gradientUnits="userSpaceOnUse"><stop
         offset="0"
         stop-color="#66a9dc"
         id="stop5" /><stop
         offset="1"
         stop-color="#b1e4fa"
         id="stop6" /></linearGradient><linearGradient
       id="linear-gradient-4"
       x1="237.4232"
       y1="9.7026796"
       x2="249.11588"
       y2="90.576942"
       xlink:href="#linear-gradient-2" /><pattern
       id="EMFhbasepattern"
       patternUnits="userSpaceOnUse"
       width="6"
       height="6"
       x="0"
       y="0" /><linearGradient
       inkscape:collect="always"
       xlink:href="#linear-gradient-2"
       id="linearGradient20"
       gradientUnits="userSpaceOnUse"
       x1="179.78728"
       y1="-1.87884"
       x2="178.9799"
       y2="93.40757" /><pattern
       id="EMFhbasepattern-9"
       patternUnits="userSpaceOnUse"
       width="6"
       height="6"
       x="0"
       y="0" /></defs><sodipodi:namedview
     id="namedview1"
     pagecolor="#ffffff"
     bordercolor="#000000"
     borderopacity="0.25"
     inkscape:showpageshadow="2"
     inkscape:pageopacity="0.0"
     inkscape:pagecheckerboard="0"
     inkscape:deskcolor="#d1d1d1"
     inkscape:zoom="29.305275"
     inkscape:cx="6.9441423"
     inkscape:cy="8.5308874"
     inkscape:window-width="1276"
     inkscape:window-height="1481"
     inkscape:window-x="0"
     inkscape:window-y="0"
     inkscape:window-maximized="0"
     inkscape:current-layer="svg1" /><g
     inkscape:label="Layer 1"
     id="layer1-5"
     transform="matrix(0.23217657,0,0,0.23217657,-24.432211,-26.407531)"><polygon
       class="cls-1"
       points="105.31,135.046 132.385,148.72 137.154,121.601 "
       id="polygon6"
       style="fill:#7929d2"
       transform="matrix(0.26458333,0,0,0.26458333,104.3096,116.91144)" /><polygon
       class="cls-2"
       points="34.434,126.703 42.309,153.408 68.401,139.419 "
       id="polygon7"
       style="fill:#9454db"
       transform="matrix(0.26458333,0,0,0.26458333,104.3096,116.91144)" /><polygon
       class="cls-3"
       points="105.31,135.046 68.401,139.419 84.508,115.518 "
       id="polygon8"
       style="fill:#af7fe4"
       transform="matrix(0.26458333,0,0,0.26458333,104.3096,116.91144)" /><polygon
       class="cls-3"
       points="34.434,126.703 8.759,101.076 38.535,97.167 "
       id="polygon9"
       style="fill:#af7fe4"
       transform="matrix(0.26458333,0,0,0.26458333,104.3096,116.91144)" /><polygon
       class="cls-4"
       points="220.982,44.482 258.666,94.416 137.154,121.601 "
       id="polygon10"
       style="fill:url(#linear-gradient)"
       transform="matrix(0.26458333,0,0,0.26458333,104.3096,116.91144)" /><polygon
       class="cls-5"
       points="172.959,8.13 220.982,44.482 137.154,121.601 "
       id="polygon11"
       style="fill:url(#linearGradient20)"
       transform="matrix(0.26458333,0,0,0.26458333,104.3096,116.91144)" /><polygon
       class="cls-6"
       points="258.666,8.13 220.982,44.482 172.959,8.13 "
       id="polygon12"
       style="fill:url(#linear-gradient-3)"
       transform="matrix(0.26458333,0,0,0.26458333,104.3096,116.91144)" /><polygon
       class="cls-7"
       points="258.666,8.13 220.982,44.482 258.666,94.416 "
       id="polygon13"
       style="fill:url(#linear-gradient-4)"
       transform="matrix(0.26458333,0,0,0.26458333,104.3096,116.91144)" /></g><path
     id="path14"
     style="fill:#3b3b3b;fill-opacity:1"
     d="M 11.5 7 C 11.308869 7 11.120409 7.01398 10.935547 7.0371094 C 9.3856265 7.2310305 8.0854117 8.2138361 7.4394531 9.5703125 C 7.1606424 10.155798 7 10.808335 7 11.5 C 7 12.191671 7.1606424 12.844198 7.4394531 13.429688 C 7.8128369 14.213773 8.4048958 14.87216 9.1386719 15.326172 C 9.8257451 15.751287 10.632675 16 11.5 16 C 13.985292 16 16 13.985292 16 11.5 C 16 10.269808 15.505078 9.1560725 14.705078 8.34375 C 14.381807 8.0155004 14.008622 7.7366112 13.597656 7.5195312 C 12.971024 7.1885331 12.25798 7 11.5 7 z M 11.5 9 C 11.7761 9 12 9.2238609 12 9.5 L 12 11 L 13.5 11 C 13.5332 11 13.566266 11.003566 13.597656 11.009766 C 13.827332 11.05495 14 11.257097 14 11.5 C 14 11.7761 13.7761 12 13.5 12 L 12.537109 12 L 12 12 L 12 12.322266 L 12 13.5 C 12 13.54037 11.993405 13.57959 11.984375 13.617188 C 11.93161 13.836752 11.735733 14 11.5 14 C 11.45746 14 11.41638 13.992402 11.376953 13.982422 C 11.160444 13.927509 11 13.733563 11 13.5 L 11 12.921875 L 11 12 L 9.5 12 C 9.2238609 12 9 11.7761 9 11.5 C 9 11.2239 9.2238609 11 9.5 11 L 11 11 L 11 9.5 C 11 9.2238609 11.2239 9 11.5 9 z " /></svg>
