<?xml version="1.0" encoding="UTF-8" standalone="no"?>
<svg
   width="16"
   height="16"
   viewBox="0 0 16 16"
   fill="none"
   version="1.1"
   id="svg1"
   sodipodi:docname="zephyr_icon_plus_light.svg"
   xml:space="preserve"
   inkscape:version="1.3.2 (091e20e, 2023-11-25, custom)"
   xmlns:inkscape="http://www.inkscape.org/namespaces/inkscape"
   xmlns:sodipodi="http://sodipodi.sourceforge.net/DTD/sodipodi-0.dtd"
   xmlns:xlink="http://www.w3.org/1999/xlink"
   xmlns="http://www.w3.org/2000/svg"
   xmlns:svg="http://www.w3.org/2000/svg"><defs
     id="defs1"><linearGradient
       id="linear-gradient"
       x1="173.22662"
       y1="83.041153"
       x2="269.62073"
       y2="83.041153"
       gradientUnits="userSpaceOnUse"><stop
         offset="0"
         stop-color="#7929d2"
         id="stop1" /><stop
         offset="1"
         stop-color="#0070c5"
         id="stop2" /></linearGradient><linearGradient
       inkscape:collect="always"
       xlink:href="#linear-gradient-2"
       id="linearGradient20"
       gradientUnits="userSpaceOnUse"
       x1="179.78728"
       y1="-1.87884"
       x2="178.9799"
       y2="93.40757" /><linearGradient
       id="linear-gradient-2"
       x1="179.78728"
       y1="-1.87884"
       x2="178.9799"
       y2="93.40757"
       gradientUnits="userSpaceOnUse"><stop
         offset="0"
         stop-color="#00aeff"
         id="stop3" /><stop
         offset="1"
         stop-color="#9454db"
         id="stop4" /></linearGradient><linearGradient
       id="linear-gradient-3"
       x1="232.84549"
       y1="37.632019"
       x2="212.26581"
       y2="1.98698"
       gradientUnits="userSpaceOnUse"><stop
         offset="0"
         stop-color="#66a9dc"
         id="stop5" /><stop
         offset="1"
         stop-color="#b1e4fa"
         id="stop6" /></linearGradient><linearGradient
       id="linear-gradient-4"
       x1="237.4232"
       y1="9.7026796"
       x2="249.11588"
       y2="90.576942"
       xlink:href="#linear-gradient-2" /><pattern
       id="EMFhbasepattern"
       patternUnits="userSpaceOnUse"
       width="6"
       height="6"
       x="0"
       y="0" /></defs><sodipodi:namedview
     id="namedview1"
     pagecolor="#ffffff"
     bordercolor="#000000"
     borderopacity="0.25"
     inkscape:showpageshadow="2"
     inkscape:pageopacity="0.0"
     inkscape:pagecheckerboard="0"
     inkscape:deskcolor="#d1d1d1"
     inkscape:zoom="13.446078"
     inkscape:cx="25.843968"
     inkscape:cy="12.010938"
     inkscape:window-width="2560"
     inkscape:window-height="1494"
     inkscape:window-x="-11"
     inkscape:window-y="-11"
     inkscape:window-maximized="1"
     inkscape:current-layer="svg1" /><g
     inkscape:label="Layer 1"
     id="layer1-5"
     transform="matrix(0.23217657,0,0,0.23217657,-24.432211,-24.105741)"><polygon
       class="cls-1"
       points="105.31,135.046 132.385,148.72 137.154,121.601 "
       id="polygon6"
       style="fill:#7929d2"
       transform="matrix(0.26458333,0,0,0.26458333,104.3096,116.91144)" /><polygon
       class="cls-2"
       points="34.434,126.703 42.309,153.408 68.401,139.419 "
       id="polygon7"
       style="fill:#9454db"
       transform="matrix(0.26458333,0,0,0.26458333,104.3096,116.91144)" /><polygon
       class="cls-3"
       points="105.31,135.046 68.401,139.419 84.508,115.518 "
       id="polygon8"
       style="fill:#af7fe4"
       transform="matrix(0.26458333,0,0,0.26458333,104.3096,116.91144)" /><polygon
       class="cls-3"
       points="34.434,126.703 8.759,101.076 38.535,97.167 "
       id="polygon9"
       style="fill:#af7fe4"
       transform="matrix(0.26458333,0,0,0.26458333,104.3096,116.91144)" /><polygon
       class="cls-4"
       points="220.982,44.482 258.666,94.416 137.154,121.601 "
       id="polygon10"
       style="fill:url(#linear-gradient)"
       transform="matrix(0.26458333,0,0,0.26458333,104.3096,116.91144)" /><polygon
       class="cls-5"
       points="172.959,8.13 220.982,44.482 137.154,121.601 "
       id="polygon11"
       style="fill:url(#linearGradient20)"
       transform="matrix(0.26458333,0,0,0.26458333,104.3096,116.91144)" /><polygon
       class="cls-6"
       points="258.666,8.13 220.982,44.482 172.959,8.13 "
       id="polygon12"
       style="fill:url(#linear-gradient-3)"
       transform="matrix(0.26458333,0,0,0.26458333,104.3096,116.91144)" /><polygon
       class="cls-7"
       points="258.666,8.13 220.982,44.482 258.666,94.416 "
       id="polygon13"
       style="fill:url(#linear-gradient-4)"
       transform="matrix(0.26458333,0,0,0.26458333,104.3096,116.91144)" /></g><g
     inkscape:label="Layer 1"
     id="layer1"
     transform="matrix(0.14070599,0,0,0.14070599,-3.2732763,-5.2540218)"><rect
       style="fill:#f9f9f9;stroke-width:1.065;stroke-linecap:round;stroke-linejoin:round;paint-order:stroke markers fill"
       id="rect1"
       width="31.384863"
       height="29.064581"
       x="92.813629"
       y="108.00629" /><path
       d="m 108.54745,97.750079 c -13.736285,0 -24.874565,11.138281 -24.874565,24.874561 0,13.73629 11.13828,24.87456 24.874565,24.87456 13.73629,0 24.87456,-11.13827 24.87456,-24.87456 0,-13.73628 -11.13827,-24.874561 -24.87456,-24.874561 z m 11.05536,27.638401 h -8.29152 V 133.68 c 0,1.52564 -1.2382,2.76384 -2.76384,2.76384 -1.52564,0 -2.76384,-1.2382 -2.76384,-2.76384 v -8.29152 h -8.291525 c -1.52564,0 -2.76384,-1.2382 -2.76384,-2.76384 0,-1.52564 1.2382,-2.76384 2.76384,-2.76384 h 8.291525 v -8.29152 c 0,-1.52564 1.2382,-2.76384 2.76384,-2.76384 1.52564,0 2.76384,1.2382 2.76384,2.76384 v 8.29152 h 8.29152 c 1.52564,0 2.76384,1.2382 2.76384,2.76384 0,1.52564 -1.2382,2.76384 -2.76384,2.76384 z"
       id="path1-0"
       style="fill:#616161;stroke-width:5.52768;fill-opacity:1"
       sodipodi:nodetypes="sssssscssscssscssscsss" /></g></svg>
